<svg xmlns="http://www.w3.org/2000/svg" width="225.114" height="153.642" viewBox="0 0 225.114 153.642">
    <g id="Grupo_638" data-name="Grupo 638" transform="translate(-94.868 -1008.168)">
        <g id="Grupo_486" data-name="Grupo 486" transform="translate(-3631.896 -903.689)">
            <g id="Grupo_394" data-name="Grupo 394" transform="translate(3768.39 1925.706)">
                <circle id="Elipse_74" data-name="Elipse 74" cx="6.827" cy="6.827" r="6.827" transform="translate(0 13.63) rotate(-86.587)" fill="#d4deff"/>
                <g id="Grupo_393" data-name="Grupo 393" transform="translate(4.176 2.203)">
                    <path id="Trazado_331" data-name="Trazado 331" d="M3844.6,1961.513l-.524-1.19a3.751,3.751,0,0,1-2.031.276l-.065-.914a3.435,3.435,0,0,0,1.92-.241,1.353,1.353,0,0,0,.893-1.772c-.285-.648-.921-.846-1.949-.816-1.409.058-2.39-.157-2.842-1.182a2.112,2.112,0,0,1,.943-2.681l-.523-1.19.73-.322.5,1.143a3.439,3.439,0,0,1,1.714-.262l.048.907a3.111,3.111,0,0,0-1.661.253c-.907.4-1.01,1.092-.8,1.564.27.612.841.727,2.053.7,1.431-.04,2.314.3,2.776,1.352a2.239,2.239,0,0,1-.98,2.823l.54,1.225Z" transform="translate(-3839.823 -1951.482)" fill="#fff"/>
                </g>
            </g>
            <g id="Grupo_395" data-name="Grupo 395" transform="translate(3750.089 1953.381)">
                <path id="Trazado_332" data-name="Trazado 332" d="M3790.1,2029.513l-5.76-6.468s2.118-4.541,8.338-4.7c3.855-.1,7.261-3.986,7.261-3.986l5.79,6.5s-3.746,5.329-8.155,5.369A10.682,10.682,0,0,0,3790.1,2029.513Z" transform="translate(-3784.341 -2014.357)" fill="#d4deff"/>
                <path id="Trazado_333" data-name="Trazado 333" d="M3808.291,2026.791a3.788,3.788,0,1,1-4.613-1.741A3.507,3.507,0,0,1,3808.291,2026.791Z" transform="translate(-3794.302 -2020.564)" fill="#e3eaff"/>
            </g>
            <g id="Grupo_396" data-name="Grupo 396" transform="translate(3917.915 1967.692)">
                <path id="Trazado_334" data-name="Trazado 334" d="M4216.65,2057.893l-2.785-8.2s-4.994-.4-8.2,4.933c-1.988,3.3-7.049,4.349-7.049,4.349l2.8,8.245s6.484-.63,8.694-4.445A10.679,10.679,0,0,1,4216.65,2057.893Z" transform="translate(-4198.612 -2049.685)" fill="#d4deff"/>
                <path id="Trazado_335" data-name="Trazado 335" d="M4212.942,2068.111a3.788,3.788,0,1,0,.762-4.872A3.508,3.508,0,0,0,4212.942,2068.111Z" transform="translate(-4206.731 -2057.15)" fill="#e3eaff"/>
            </g>
            <path id="Trazado_336" data-name="Trazado 336" d="M3933.1,2082.061c9.728-15.518,19.752-27.932,18.7-49.929-.9-18.852-22.178-24.3-27.828-32.317-6.915-9.817,1.2-28.427-11.072-45.183-13.436-18.351-34.96-17.947-52.665-8.678-12.928,6.769-26.2,9.1-39.2,5.087-21.967-6.782-52.066-8.677-55.058,18.253-2.081,18.727-12.268,24.537-28.427,37.1-21.8,16.953-5.21,50.467,3.193,74.153Z" transform="translate(0 -16.562)" fill="#e3eaff"/>
            <path id="Rectángulo_461" data-name="Rectángulo 461" d="M1.107,0H204.244a1.107,1.107,0,0,1,1.107,1.107v0a1.107,1.107,0,0,1-1.107,1.107H1.107A1.107,1.107,0,0,1,0,1.107v0A1.107,1.107,0,0,1,1.107,0Z" transform="translate(3728.758 2063.284)" fill="#95a6db"/>
            <g id="Grupo_398" data-name="Grupo 398" transform="translate(3843.524 1976.883)">
                <path id="Trazado_337" data-name="Trazado 337" d="M4028.524,2077.333a6.911,6.911,0,1,1-8.581-4.677A6.911,6.911,0,0,1,4028.524,2077.333Z" transform="translate(-4014.982 -2072.372)" fill="#fff"/>
                <g id="Grupo_397" data-name="Grupo 397" transform="translate(4.053 1.652)">
                    <path id="Trazado_338" data-name="Trazado 338" d="M4028.932,2086.967l-.372-1.263a3.8,3.8,0,0,1-2.075.013l.054-.926a3.475,3.475,0,0,0,1.958.007,1.37,1.37,0,0,0,1.127-1.664c-.2-.687-.815-.969-1.851-1.071-1.422-.125-2.379-.468-2.7-1.556a2.138,2.138,0,0,1,1.3-2.569l-.372-1.262.775-.228.357,1.213a3.477,3.477,0,0,1,1.754-.041l-.07.917a3.155,3.155,0,0,0-1.7.039c-.963.283-1.156.965-1.009,1.465.191.65.75.839,1.97.969,1.442.146,2.284.6,2.611,1.717a2.267,2.267,0,0,1-1.35,2.707l.383,1.3Z" transform="translate(-4024.986 -2076.449)" fill="#e3eaff"/>
                </g>
            </g>
            <g id="Grupo_400" data-name="Grupo 400" transform="translate(3802.707 1990.684)">
                <path id="Trazado_339" data-name="Trazado 339" d="M3955.4,2124.959l-8.343,5.914-26.235,18.6-2.716,1.926,2.068,2.942,11.472,16.324,20.061-14.25,10.213-7.254.12-.084,1.035-13.195Z" transform="translate(-3916.531 -2117.457)" fill="#3f964f"/>
                <path id="Trazado_340" data-name="Trazado 340" d="M3972.409,2151.218l-5.194-7.39a3.965,3.965,0,0,1-5.522-.964l-24.32,17.319a3.965,3.965,0,0,1-.964,5.523l5.195,7.39a3.965,3.965,0,0,1,5.522.964l24.321-17.319A3.965,3.965,0,0,1,3972.409,2151.218Z" transform="translate(-3927.422 -2128.108)" fill="#4ead60"/>
                <path id="Trazado_341" data-name="Trazado 341" d="M3979.264,2166.668a6.581,6.581,0,1,0-1.6,9.168A6.581,6.581,0,0,0,3979.264,2166.668Z" transform="translate(-3945.798 -2140.605)" fill="#3f964f"/>
                <path id="Trazado_342" data-name="Trazado 342" d="M4018.2,2151.915l-7.427,7.1,6.272,6.177.105.1.015-.188Z" transform="translate(-3971.659 -2133.492)" fill="#3f964f"/>
                <g id="Grupo_399" data-name="Grupo 399" transform="translate(39.111 17.698)">
                    <path id="Trazado_343" data-name="Trazado 343" d="M4014.423,2177.465l-3.652-8.019,6.272,6.177Z" transform="translate(-4010.771 -2161.62)" fill="#193f1e" opacity="0.2" style="mix-blend-mode: color-burn;isolation: isolate"/>
                    <path id="Trazado_344" data-name="Trazado 344" d="M4018.2,2150.851l-7.427,7.1,6.918-7.827Z" transform="translate(-4010.771 -2150.127)" fill="#193f1e" opacity="0.2" style="mix-blend-mode: color-burn;isolation: isolate"/>
                </g>
                <path id="Trazado_345" data-name="Trazado 345" d="M3950.089,2139.558l-26.235,18.6-.649,4.868,11.472,16.324,20.061-14.25-1.025-3.881c-.387-1.467-2.987-2.115-6.279-1.743Z" transform="translate(-3919.567 -2126.141)" fill="#193f1e" opacity="0.2" style="mix-blend-mode: color-burn;isolation: isolate"/>
                <rect id="Rectángulo_462" data-name="Rectángulo 462" width="54.987" height="23.548" transform="translate(0 54.505) rotate(-82.408)" fill="#3f964f"/>
                <path id="Trazado_346" data-name="Trazado 346" d="M3943.446,2119.7l-8.954-1.193a3.965,3.965,0,0,1-4.453,3.406l-5.171,38.786a3.965,3.965,0,0,1,3.406,4.454l8.954,1.193a3.965,3.965,0,0,1,4.453-3.406l5.171-38.786A3.965,3.965,0,0,1,3943.446,2119.7Z" transform="translate(-3920.557 -2113.618)" fill="#4ead60"/>
                <circle id="Elipse_75" data-name="Elipse 75" cx="6.581" cy="6.581" r="6.581" transform="translate(7.974 34.185) rotate(-78.527)" fill="#3f964f"/>
                <path id="Trazado_347" data-name="Trazado 347" d="M3939.733,2192.477l-22.428,5.92,6.009,22.768,22.427-5.919-4.229-16.023c4.48-1.2,7.707-3.66,7.218-5.512s-4.51-2.4-9-1.233Z" transform="translate(-3916.057 -2157.257)" fill="#3f964f"/>
                <rect id="Rectángulo_463" data-name="Rectángulo 463" width="16.568" height="26.073" transform="translate(11.66 59.136) rotate(-104.785)" fill="#4ead60"/>
                <circle id="Elipse_76" data-name="Elipse 76" cx="5.878" cy="5.878" r="5.878" transform="matrix(0.839, -0.544, 0.544, 0.839, 12.57, 46.445)" fill="#3f964f"/>
                <path id="Trazado_348" data-name="Trazado 348" d="M3969.293,2192.477l-2.3.607,6.01,22.768,10.406-2.746-5.119-19.4c-.489-1.853-4.509-2.4-9-1.233Z" transform="translate(-3945.618 -2157.257)" fill="#193f1e" opacity="0.2" style="mix-blend-mode: color-burn;isolation: isolate"/>
                <path id="Trazado_349" data-name="Trazado 349" d="M3984.28,2196.421c.489,1.853-2.738,4.313-7.218,5.512l6.01,22.769h0c4.48-1.2,7.707-3.66,7.217-5.513Z" transform="translate(-3951.606 -2159.968)" fill="#3f964f"/>
                <path id="Trazado_350" data-name="Trazado 350" d="M3993.239,2206.563c.217.819-.336,1.736-1.35,2.448a2.331,2.331,0,0,1-1.585,2.84h-.006l3.038,11.512h.006a2.308,2.308,0,0,1,2.674,1.392c1.028-.714,1.591-1.638,1.373-2.464Z" transform="translate(-3959.48 -2166.002)" fill="#4ead60"/>
            </g>
            <g id="Grupo_401" data-name="Grupo 401" transform="translate(3764.452 1963.633)">
                <path id="Trazado_351" data-name="Trazado 351" d="M3866.654,2139.255l-33,.021a9.423,9.423,0,0,1-9.429-9.417l-.051-80.744a9.423,9.423,0,0,1,9.417-9.429l33-.021a9.423,9.423,0,0,1,9.429,9.417l.051,80.744A9.423,9.423,0,0,1,3866.654,2139.255Z" transform="translate(-3822.403 -2039.665)" fill="#2c2858"/>
                <path id="Trazado_352" data-name="Trazado 352" d="M3870.6,2140.888l-33.677.022a6.627,6.627,0,0,1-6.631-6.623l-.052-82.512a6.627,6.627,0,0,1,6.622-6.63l33.677-.021a6.626,6.626,0,0,1,6.631,6.622l.052,82.512A6.626,6.626,0,0,1,3870.6,2140.888Z" transform="translate(-3826.008 -2042.912)" fill="#95a6db"/>
                <path id="Trazado_353" data-name="Trazado 353" d="M3821.266,2089.373h0a1.47,1.47,0,0,1-1.471-1.47v-7.623a1.47,1.47,0,0,1,1.471-1.47h0a1.47,1.47,0,0,1,1.47,1.47v7.623A1.47,1.47,0,0,1,3821.266,2089.373Z" transform="translate(-3819.795 -2062.951)" fill="#2c2858"/>
                <path id="Trazado_354" data-name="Trazado 354" d="M3950.685,2089.373h0a1.47,1.47,0,0,1-1.47-1.47v-7.623a1.47,1.47,0,0,1,1.47-1.47h0a1.47,1.47,0,0,1,1.47,1.47v7.623A1.47,1.47,0,0,1,3950.685,2089.373Z" transform="translate(-3896.786 -2062.951)" fill="#2c2858"/>
            </g>
            <g id="Grupo_402" data-name="Grupo 402" transform="translate(3853.745 1963.633)">
                <path id="Trazado_355" data-name="Trazado 355" d="M4087.068,2139.255l-33,.021a9.424,9.424,0,0,1-9.429-9.417l-.051-80.744a9.423,9.423,0,0,1,9.417-9.429l33-.021a9.423,9.423,0,0,1,9.429,9.417l.051,80.744A9.422,9.422,0,0,1,4087.068,2139.255Z" transform="translate(-4042.818 -2039.665)" fill="#2c2858"/>
                <path id="Trazado_356" data-name="Trazado 356" d="M4091.015,2140.888l-33.677.022a6.627,6.627,0,0,1-6.63-6.623l-.052-82.512a6.626,6.626,0,0,1,6.622-6.63l33.677-.021a6.626,6.626,0,0,1,6.63,6.622l.052,82.512A6.626,6.626,0,0,1,4091.015,2140.888Z" transform="translate(-4046.424 -2042.912)" fill="#95a6db"/>
                <path id="Trazado_357" data-name="Trazado 357" d="M4041.681,2089.373h0a1.47,1.47,0,0,1-1.47-1.47v-7.623a1.47,1.47,0,0,1,1.47-1.47h0a1.471,1.471,0,0,1,1.47,1.47v7.623A1.47,1.47,0,0,1,4041.681,2089.373Z" transform="translate(-4040.211 -2062.951)" fill="#2c2858"/>
                <path id="Trazado_358" data-name="Trazado 358" d="M4171.1,2089.373h0a1.47,1.47,0,0,1-1.47-1.47v-7.623a1.47,1.47,0,0,1,1.47-1.47h0a1.471,1.471,0,0,1,1.471,1.47v7.623A1.471,1.471,0,0,1,4171.1,2089.373Z" transform="translate(-4117.201 -2062.951)" fill="#2c2858"/>
                <path id="Trazado_359" data-name="Trazado 359" d="M4041.681,2117.208h0a1.47,1.47,0,0,1-1.47-1.47v-7.623a1.47,1.47,0,0,1,1.47-1.47h0a1.47,1.47,0,0,1,1.47,1.47v7.623A1.471,1.471,0,0,1,4041.681,2117.208Z" transform="translate(-4040.211 -2079.51)" fill="#2c2858"/>
            </g>
            <g id="Grupo_411" data-name="Grupo 411" transform="translate(3742.333 1989.998)">
                <g id="Grupo_403" data-name="Grupo 403" transform="translate(4.071 35.425)">
                    <path id="Trazado_360" data-name="Trazado 360" d="M3779.6,2272.568c-1.109,4.656-5.071,2.1-4.243,5.037a.527.527,0,0,0,.493.371l2.327.089a1.046,1.046,0,0,0,.631-.183c1.228-.84,2.061-2.024,4.712-2.167-.021-1.132.031-2.748-.343-3.326Z" transform="translate(-3775.244 -2239.9)" fill="#0e6a41"/>
                    <path id="Trazado_361" data-name="Trazado 361" d="M3789.448,2192.192s-6.768,10.321-7.7,13.531,1.02,8.651.667,19.614a14.215,14.215,0,0,0,4.935.077s1.7-13.752-.3-17c2.991-4.565,10.505-14.53,10.505-14.53Z" transform="translate(-3778.96 -2192.192)" fill="#201d40"/>
                </g>
                <g id="Grupo_404" data-name="Grupo 404" transform="translate(12.459 33.339)">
                    <path id="Trazado_362" data-name="Trazado 362" d="M3801.8,2276.537c-1.722,2.344-6.02.958-5.847,4.1,6.515-.1,9.222-.09,9.222-.09a22.348,22.348,0,0,0-.317-3.108Z" transform="translate(-3795.949 -2240.281)" fill="#0e6a41"/>
                    <path id="Trazado_363" data-name="Trazado 363" d="M3802.867,2187.041s-2.158,16.839-1.66,20.145,2.042,5.894,2.1,16.863c2.134.47,5.4.893,5.4.893s1.375-13.23-1.454-16.873c.8-5.4,4.622-18.976,4.622-18.976Z" transform="translate(-3799.033 -2187.041)" fill="#2c2858"/>
                </g>
                <g id="Grupo_410" data-name="Grupo 410" transform="translate(0 0)">
                    <path id="Trazado_364" data-name="Trazado 364" d="M3770.433,2164.242l-2.631-2.95a.306.306,0,0,0-.224-.1l-2.166-.013c-.062,0-.253.342-.212.387l1.856,1.649a.065.065,0,0,0,.031.021l3.183,1.18C3770.338,2164.435,3770.48,2164.3,3770.433,2164.242Z" transform="translate(-3765.194 -2138.316)" fill="#c4204a"/>
                    <path id="Trazado_365" data-name="Trazado 365" d="M3770.235,2164.938l-2.507-2.781a.308.308,0,0,0-.224-.1l-2.233-.04a.07.07,0,0,0-.053.117l1.765,1.946a.075.075,0,0,0,.032.02l3.148.954A.07.07,0,0,0,3770.235,2164.938Z" transform="translate(-3765.197 -2138.815)" fill="#e62552"/>
                    <path id="Trazado_366" data-name="Trazado 366" d="M3777.553,2169.354l-1.812-.888s-1.788-1.81-2.053-2.214a15.014,15.014,0,0,0-1.32-.727,2.773,2.773,0,0,0-.516.033l.839.954a1.34,1.34,0,0,1-.907-.244c-.509-.323-1.407-1.189-1.847-1.021l-.156.138s-.278-.3-.54-.187.259,1.416,1.737,2.8a4.385,4.385,0,0,0,.585,1.017l2.989,1.05Z" transform="translate(-3767.563 -2140.694)" fill="#f37a50"/>
                    <path id="Trazado_367" data-name="Trazado 367" d="M3770.3,2162.826a.217.217,0,1,0-.044-.341A.246.246,0,0,0,3770.3,2162.826Z" transform="translate(-3768.173 -2139.064)" fill="#c4204a"/>
                    <path id="Trazado_368" data-name="Trazado 368" d="M3810.618,2134.624c-.538.7,3.675,1.455,4.24.006s-.405-5.433-.405-5.433l-3.841.815S3811.318,2133.716,3810.618,2134.624Z" transform="translate(-3792.188 -2119.292)" fill="#f37a50"/>
                    <g id="Grupo_409" data-name="Grupo 409" transform="translate(11.018)">
                        <ellipse id="Elipse_77" data-name="Elipse 77" cx="4.406" cy="5.61" rx="4.406" ry="5.61" transform="translate(2.736 1.993) rotate(-5.99)" fill="#f37a50"/>
                        <path id="Trazado_369" data-name="Trazado 369" d="M3802.813,2124.777a.459.459,0,1,1-.277-.586A.458.458,0,0,1,3802.813,2124.777Z" transform="translate(-3798.062 -2116.297)"/>
                        <path id="Trazado_370" data-name="Trazado 370" d="M3810.13,2123.081a.5.5,0,1,1-.3-.635A.5.5,0,0,1,3810.13,2123.081Z" transform="translate(-3802.371 -2115.258)"/>
                        <path id="Trazado_371" data-name="Trazado 371" d="M3805.941,2125.442c-.1.722-.232,1.611-.232,1.611a1.11,1.11,0,0,0,1.261.155c-.393.013-.822-.062-.887-.565S3805.941,2125.442,3805.941,2125.442Z" transform="translate(-3800.314 -2117.058)" fill="#de623c"/>
                        <g id="Grupo_405" data-name="Grupo 405" transform="translate(3.425 7.029)">
                            <path id="Trazado_372" data-name="Trazado 372" d="M3802.039,2122.5a.177.177,0,0,1-.174,0,.513.513,0,0,0-.375-.032.575.575,0,0,0-.3.368.176.176,0,0,1-.33-.123.9.9,0,0,1,.51-.576.867.867,0,0,1,.664.053.176.176,0,0,1,.006.305Z" transform="translate(-3800.848 -2122.096)" fill="#020205"/>
                        </g>
                        <g id="Grupo_406" data-name="Grupo 406" transform="translate(6.765 6.371)">
                            <path id="Trazado_373" data-name="Trazado 373" d="M3809.231,2121.033a.177.177,0,0,0,.166-.054.511.511,0,0,1,.344-.154.576.576,0,0,1,.4.249.176.176,0,1,0,.271-.224.9.9,0,0,0-.67-.377.869.869,0,0,0-.61.269.177.177,0,0,0,.095.291Z" transform="translate(-3809.091 -2120.474)" fill="#020205"/>
                        </g>
                        <path id="Trazado_374" data-name="Trazado 374" d="M3803.579,2113.356a3.649,3.649,0,0,1-1.154-3.374c-.773.051-.99.381-.99.381a1.688,1.688,0,0,1-.47-1.386c-1.676-.183-2.166,1-3.445,1.7-1.752.958-4.267.834-5.1-1.395a.4.4,0,0,1,.512-.525,1.786,1.786,0,0,0,1.1.024,1.908,1.908,0,0,1-.7-.944.4.4,0,0,1,.563-.478,2.885,2.885,0,0,0,2.505-.258c.814-.391,2.407-2.294,3.7-2.355a3.121,3.121,0,0,1,2.75,1.713,3.253,3.253,0,0,1,3.5,2.23c.958,2.591-2.633,6.6-2.633,6.6S3804,2113.766,3803.579,2113.356Z" transform="translate(-3792.393 -2104.746)" fill="#020205"/>
                        <path id="Trazado_375" data-name="Trazado 375" d="M3806.673,2131.017a.135.135,0,0,1,.041-.245,9.584,9.584,0,0,0,2.378-.892.135.135,0,0,1,.191.158,1.684,1.684,0,0,1-2.61.978Z" transform="translate(-3800.851 -2119.689)" fill="#fff"/>
                        <g id="Grupo_408" data-name="Grupo 408" transform="translate(9.602 6.36)">
                            <path id="Trazado_376" data-name="Trazado 376" d="M3816.543,2120.88a1.1,1.1,0,1,0,1.7-.158A1.217,1.217,0,0,0,3816.543,2120.88Z" transform="translate(-3816.094 -2120.445)" fill="#f37a50"/>
                            <g id="Grupo_407" data-name="Grupo 407" transform="translate(0.648 0.603)">
                                <path id="Trazado_377" data-name="Trazado 377" d="M3818,2123.242a.161.161,0,0,1-.061-.04.72.72,0,0,1-.159-.87.767.767,0,0,1,.8-.385.159.159,0,0,1-.064.312.454.454,0,0,0-.459.227.407.407,0,0,0,.11.5.16.16,0,0,1-.169.26Z" transform="translate(-3817.695 -2121.933)" fill="#de623c"/>
                            </g>
                        </g>
                    </g>
                    <path id="Trazado_378" data-name="Trazado 378" d="M3799.131,2161.214c3,.614,8.406,1.671,11.263.558,1.081-1.552,1.355-10.33,1.355-10.33.313-9.034-.771-10.375-3.214-13.4a16.33,16.33,0,0,1-4.72.882s-2.556,3.55-3.055,6.127a71.565,71.565,0,0,0-.61,9.922A26.253,26.253,0,0,1,3799.131,2161.214Z" transform="translate(-3785.383 -2124.552)" fill="#3f964f"/>
                    <path id="Trazado_379" data-name="Trazado 379" d="M3811.43,2143.44c1.758,3.421,1.36,7.21-3.75,14.668a4.642,4.642,0,0,1-4.28-3.295s.983-3.7,2.26-8.362S3810.661,2141.943,3811.43,2143.44Z" transform="translate(-3787.922 -2127.209)" fill="#0e6a41"/>
                    <path id="Trazado_380" data-name="Trazado 380" d="M3783.218,2171.122l7.662.612s3.286-.6,4.21,3.4c-1.645,1.28-5.89,1.76-12.853-.825A8.5,8.5,0,0,0,3783.218,2171.122Z" transform="translate(-3775.333 -2144.232)" fill="#0e6a41"/>
                    <path id="Trazado_381" data-name="Trazado 381" d="M3810.644,2136.977l-.073,2.061,5.184-2.173-.628-1.667Z" transform="translate(-3792.188 -2122.861)" fill="#fff"/>
                </g>
            </g>
            <g id="Grupo_413" data-name="Grupo 413" transform="translate(3784.824 1943.465)">
                <path id="Trazado_382" data-name="Trazado 382" d="M3884.737,2000.6a7.647,7.647,0,1,1-3.938-10.073A7.647,7.647,0,0,1,3884.737,2000.6Z" transform="translate(-3870.082 -1989.881)" fill="#faba23"/>
                <path id="Trazado_383" data-name="Trazado 383" d="M3885.49,2002.048a6.282,6.282,0,1,1-3.234-8.274A6.3,6.3,0,0,1,3885.49,2002.048Z" transform="translate(-3872.087 -1991.88)" fill="#fad332"/>
                <g id="Grupo_412" data-name="Grupo 412" transform="translate(5.244 2.358)">
                    <path id="Trazado_384" data-name="Trazado 384" d="M3885,2006.274l0-1.3a3.752,3.752,0,0,1-1.971-.561l.307-.864a3.431,3.431,0,0,0,1.855.549c.914,0,1.531-.532,1.529-1.266,0-.708-.506-1.145-1.459-1.528-1.314-.511-2.128-1.1-2.131-2.221a2.112,2.112,0,0,1,1.938-2.078l0-1.3.8,0,0,1.249a3.434,3.434,0,0,1,1.675.446l-.319.85a3.119,3.119,0,0,0-1.624-.433c-.991,0-1.363.6-1.361,1.111,0,.669.479,1,1.6,1.463,1.327.537,2,1.2,2,2.351a2.24,2.24,0,0,1-2.028,2.195l0,1.339Z" transform="translate(-3883.027 -1995.701)" fill="#faba23"/>
                </g>
            </g>
            <g id="Grupo_415" data-name="Grupo 415" transform="translate(3798.542 1921.28)">
                <path id="Trazado_385" data-name="Trazado 385" d="M3918.6,1945.834a7.647,7.647,0,1,1-3.938-10.073A7.648,7.648,0,0,1,3918.6,1945.834Z" transform="translate(-3903.945 -1935.117)" fill="#faba23"/>
                <path id="Trazado_386" data-name="Trazado 386" d="M3919.353,1947.285a6.282,6.282,0,1,1-3.235-8.274A6.3,6.3,0,0,1,3919.353,1947.285Z" transform="translate(-3905.949 -1937.116)" fill="#fad332"/>
                <g id="Grupo_414" data-name="Grupo 414" transform="translate(5.244 2.358)">
                    <path id="Trazado_387" data-name="Trazado 387" d="M3918.865,1951.51l0-1.3a3.753,3.753,0,0,1-1.972-.561l.307-.864a3.428,3.428,0,0,0,1.855.548c.914,0,1.531-.532,1.529-1.266,0-.708-.505-1.145-1.459-1.528-1.314-.511-2.127-1.1-2.13-2.221a2.111,2.111,0,0,1,1.938-2.078l0-1.3.8,0,0,1.249a3.431,3.431,0,0,1,1.674.446l-.319.85a3.119,3.119,0,0,0-1.624-.433c-.991,0-1.363.6-1.361,1.112,0,.669.479,1,1.6,1.463,1.328.537,2,1.2,2,2.35a2.24,2.24,0,0,1-2.028,2.195l0,1.339Z" transform="translate(-3916.89 -1940.938)" fill="#faba23"/>
                </g>
            </g>
            <g id="Grupo_417" data-name="Grupo 417" transform="translate(3855.83 1920.192)">
                <circle id="Elipse_78" data-name="Elipse 78" cx="7.647" cy="7.647" r="7.647" transform="translate(0 2.363) rotate(-8.886)" fill="#faba23"/>
                <path id="Trazado_388" data-name="Trazado 388" d="M4063.45,1947.285a6.282,6.282,0,1,1-3.235-8.274A6.3,6.3,0,0,1,4063.45,1947.285Z" transform="translate(-4048.959 -1936.029)" fill="#fad332"/>
                <g id="Grupo_416" data-name="Grupo 416" transform="translate(6.332 3.446)">
                    <path id="Trazado_389" data-name="Trazado 389" d="M4062.962,1951.51l0-1.3a3.751,3.751,0,0,1-1.972-.561l.307-.864a3.427,3.427,0,0,0,1.855.548c.914,0,1.53-.532,1.528-1.266,0-.708-.505-1.145-1.459-1.528-1.315-.511-2.127-1.1-2.131-2.221a2.111,2.111,0,0,1,1.938-2.078l0-1.3.8,0,0,1.249a3.431,3.431,0,0,1,1.674.446l-.319.85a3.117,3.117,0,0,0-1.624-.433c-.991,0-1.363.6-1.361,1.112,0,.669.479,1,1.6,1.463,1.328.537,2,1.2,2,2.35a2.24,2.24,0,0,1-2.028,2.195l0,1.339Z" transform="translate(-4060.987 -1940.938)" fill="#faba23"/>
                </g>
            </g>
            <g id="Grupo_419" data-name="Grupo 419" transform="translate(3872.502 1943.465)">
                <path id="Trazado_390" data-name="Trazado 390" d="M4101.167,2000.6a7.647,7.647,0,1,1-3.938-10.073A7.647,7.647,0,0,1,4101.167,2000.6Z" transform="translate(-4086.513 -1989.881)" fill="#faba23"/>
                <path id="Trazado_391" data-name="Trazado 391" d="M4101.921,2002.048a6.282,6.282,0,1,1-3.235-8.274A6.3,6.3,0,0,1,4101.921,2002.048Z" transform="translate(-4088.517 -1991.88)" fill="#fad332"/>
                <g id="Grupo_418" data-name="Grupo 418" transform="translate(5.244 2.358)">
                    <path id="Trazado_392" data-name="Trazado 392" d="M4101.433,2006.274l0-1.3a3.75,3.75,0,0,1-1.971-.561l.306-.864a3.434,3.434,0,0,0,1.856.549c.914,0,1.531-.532,1.528-1.266,0-.708-.505-1.145-1.459-1.528-1.314-.511-2.128-1.1-2.131-2.221A2.113,2.113,0,0,1,4101.5,1997l0-1.3.8,0,0,1.249a3.435,3.435,0,0,1,1.675.446l-.32.85a3.114,3.114,0,0,0-1.623-.433c-.991,0-1.363.6-1.362,1.111,0,.669.479,1,1.6,1.463,1.328.537,2,1.2,2,2.351a2.24,2.24,0,0,1-2.028,2.195l0,1.339Z" transform="translate(-4099.458 -1995.701)" fill="#faba23"/>
                </g>
            </g>
            <g id="Grupo_421" data-name="Grupo 421" transform="translate(3829.989 1911.857)">
                <path id="Trazado_393" data-name="Trazado 393" d="M3996.225,1922.573a7.647,7.647,0,1,1-3.937-10.072A7.646,7.646,0,0,1,3996.225,1922.573Z" transform="translate(-3981.571 -1911.857)" fill="#faba23"/>
                <path id="Trazado_394" data-name="Trazado 394" d="M3996.979,1924.025a6.282,6.282,0,1,1-3.235-8.274A6.3,6.3,0,0,1,3996.979,1924.025Z" transform="translate(-3983.575 -1913.856)" fill="#fad332"/>
                <g id="Grupo_420" data-name="Grupo 420" transform="translate(5.244 2.358)">
                    <path id="Trazado_395" data-name="Trazado 395" d="M3996.49,1928.251l0-1.3a3.75,3.75,0,0,1-1.972-.561l.307-.863a3.43,3.43,0,0,0,1.856.549c.914,0,1.531-.532,1.529-1.266,0-.708-.506-1.144-1.459-1.528-1.314-.511-2.128-1.1-2.13-2.222a2.112,2.112,0,0,1,1.938-2.078l0-1.3.8,0,0,1.249a3.435,3.435,0,0,1,1.675.446l-.319.851a3.107,3.107,0,0,0-1.624-.433c-.991,0-1.363.6-1.361,1.111,0,.67.479,1,1.6,1.463,1.328.537,2,1.2,2,2.35a2.239,2.239,0,0,1-2.028,2.194l0,1.339Z" transform="translate(-3994.515 -1917.678)" fill="#faba23"/>
                </g>
            </g>
            <g id="Grupo_427" data-name="Grupo 427" transform="translate(3802.476 1929.364)">
                <g id="Grupo_425" data-name="Grupo 425" transform="translate(0 0)">
                    <g id="Grupo_424" data-name="Grupo 424">
                        <g id="Grupo_422" data-name="Grupo 422" transform="translate(0.396)">
                            <path id="Trazado_396" data-name="Trazado 396" d="M3979.335,1983.728a.671.671,0,0,1-.662-.567,31.82,31.82,0,0,0-.686-3.251.671.671,0,0,1,1.3-.346,33.085,33.085,0,0,1,.715,3.389.671.671,0,0,1-.559.766A.732.732,0,0,1,3979.335,1983.728Zm-64.029-.028a.72.72,0,0,1-.105-.008.671.671,0,0,1-.558-.767,33.1,33.1,0,0,1,.718-3.388.671.671,0,0,1,1.3.347,31.727,31.727,0,0,0-.688,3.25A.671.671,0,0,1,3915.305,1983.7Zm62.284-6.521a.672.672,0,0,1-.627-.431,31.768,31.768,0,0,0-1.352-3.036.671.671,0,1,1,1.2-.61,33.075,33.075,0,0,1,1.409,3.166.672.672,0,0,1-.626.911Zm-60.532-.026a.67.67,0,0,1-.626-.911,32.934,32.934,0,0,1,1.411-3.161.671.671,0,1,1,1.194.61,31.775,31.775,0,0,0-1.353,3.033A.671.671,0,0,1,3917.057,1977.154Zm57.453-6.014a.67.67,0,0,1-.563-.305,31.961,31.961,0,0,0-1.955-2.688.671.671,0,0,1,1.043-.844,33.369,33.369,0,0,1,2.037,2.8.671.671,0,0,1-.562,1.036Zm-54.373-.018a.671.671,0,0,1-.562-1.037,33.288,33.288,0,0,1,2.038-2.8.671.671,0,0,1,1.042.845,31.942,31.942,0,0,0-1.956,2.686A.669.669,0,0,1,3920.138,1971.121Zm50.106-5.249a.667.667,0,0,1-.474-.2,32.135,32.135,0,0,0-2.468-2.225.671.671,0,1,1,.845-1.042,33.333,33.333,0,0,1,2.572,2.319.671.671,0,0,1-.475,1.145Zm-45.836-.015a.671.671,0,0,1-.475-1.145,33.408,33.408,0,0,1,2.574-2.317.671.671,0,0,1,.844,1.042,32.014,32.014,0,0,0-2.47,2.224A.668.668,0,0,1,3924.407,1965.858Zm40.573-4.255a.665.665,0,0,1-.365-.109,31.909,31.909,0,0,0-2.875-1.665.671.671,0,0,1,.611-1.195,33.311,33.311,0,0,1,3,1.735.671.671,0,0,1-.367,1.233Zm-35.306-.012a.671.671,0,0,1-.367-1.233,33.123,33.123,0,0,1,3-1.734.671.671,0,0,1,.61,1.2,31.834,31.834,0,0,0-2.877,1.663A.669.669,0,0,1,3929.674,1961.591Zm29.275-3.07a.67.67,0,0,1-.24-.045,31.516,31.516,0,0,0-3.159-1.027.671.671,0,1,1,.347-1.3,32.919,32.919,0,0,1,3.294,1.071.671.671,0,0,1-.241,1.3Zm-23.237-.01a.671.671,0,0,1-.241-1.3,33.077,33.077,0,0,1,3.3-1.069.671.671,0,1,1,.346,1.3,31.577,31.577,0,0,0-3.162,1.025A.671.671,0,0,1,3935.712,1958.512Zm16.692-1.744a.673.673,0,0,1-.105-.008,32.005,32.005,0,0,0-3.3-.345.671.671,0,1,1,.07-1.34,33.39,33.39,0,0,1,3.444.359.671.671,0,0,1-.1,1.334Zm-10.144,0a.671.671,0,0,1-.1-1.334,33.48,33.48,0,0,1,3.445-.356.671.671,0,0,1,.069,1.34,31.9,31.9,0,0,0-3.306.342A.646.646,0,0,1,3942.26,1956.764Z" transform="translate(-3914.634 -1955.073)" fill="#95a6db"/>
                        </g>
                        <g id="Grupo_423" data-name="Grupo 423" transform="translate(0 30.69)">
                            <path id="Trazado_397" data-name="Trazado 397" d="M3914.327,2033.848a.671.671,0,0,1-.671-.671c0-.569.014-1.144.044-1.711a.671.671,0,1,1,1.34.068c-.028.544-.042,1.1-.042,1.643A.671.671,0,0,1,3914.327,2033.848Z" transform="translate(-3913.656 -2030.83)" fill="#95a6db"/>
                        </g>
                    </g>
                </g>
                <g id="Grupo_426" data-name="Grupo 426" transform="translate(60.671 27.505)">
                    <path id="Trazado_398" data-name="Trazado 398" d="M4068.12,2029.563h-.008a.419.419,0,0,1-.328-.169l-4.281-5.758a.419.419,0,1,1,.672-.5l3.959,5.324,3.942-4.894a.419.419,0,1,1,.653.525l-4.282,5.315A.418.418,0,0,1,4068.12,2029.563Z" transform="translate(-4063.419 -2022.967)" fill="#95a6db"/>
                </g>
            </g>
            <g id="Grupo_438" data-name="Grupo 438" transform="translate(3859.031 2023.976)">
                <g id="Grupo_436" data-name="Grupo 436" transform="translate(13.379)">
                    <g id="Grupo_428" data-name="Grupo 428" transform="translate(1.796 28.634)">
                        <path id="Trazado_399" data-name="Trazado 399" d="M4113.857,2260.5v1.7a1.2,1.2,0,0,1-1.2,1.2h-20.735a1.2,1.2,0,0,1-1.2-1.2v-1.7a1.2,1.2,0,0,1,1.2-1.2h20.735a1.2,1.2,0,0,1,1.2,1.2Z" transform="translate(-4090.719 -2259.299)" fill="#fad332"/>
                        <rect id="Rectángulo_464" data-name="Rectángulo 464" width="0.602" height="4.103" transform="translate(1.149)" fill="#faba23"/>
                        <rect id="Rectángulo_465" data-name="Rectángulo 465" width="0.602" height="4.103" transform="translate(3.675)" fill="#faba23"/>
                        <rect id="Rectángulo_466" data-name="Rectángulo 466" width="0.602" height="4.103" transform="translate(6.2)" fill="#faba23"/>
                        <rect id="Rectángulo_467" data-name="Rectángulo 467" width="0.602" height="4.103" transform="translate(8.726)" fill="#faba23"/>
                        <rect id="Rectángulo_468" data-name="Rectángulo 468" width="0.602" height="4.103" transform="translate(11.252)" fill="#faba23"/>
                        <rect id="Rectángulo_469" data-name="Rectángulo 469" width="0.602" height="4.103" transform="translate(13.777)" fill="#faba23"/>
                        <rect id="Rectángulo_470" data-name="Rectángulo 470" width="0.602" height="4.103" transform="translate(16.303)" fill="#faba23"/>
                        <rect id="Rectángulo_471" data-name="Rectángulo 471" width="0.602" height="4.103" transform="translate(18.828)" fill="#faba23"/>
                        <rect id="Rectángulo_472" data-name="Rectángulo 472" width="0.602" height="4.103" transform="translate(21.354)" fill="#faba23"/>
                        <path id="Trazado_400" data-name="Trazado 400" d="M4113.991,2259.725H4091.42a1.2,1.2,0,0,1,.918-.426h20.735A1.2,1.2,0,0,1,4113.991,2259.725Z" transform="translate(-4091.136 -2259.299)" fill="#faba23"/>
                        <path id="Trazado_401" data-name="Trazado 401" d="M4113.991,2268.375H4091.42a1.2,1.2,0,0,0,.918.426h20.735A1.2,1.2,0,0,0,4113.991,2268.375Z" transform="translate(-4091.136 -2264.698)" fill="#faba23"/>
                    </g>
                    <g id="Grupo_429" data-name="Grupo 429" transform="translate(3.247 24.531)">
                        <path id="Trazado_402" data-name="Trazado 402" d="M4117.438,2250.374v1.7a1.2,1.2,0,0,1-1.2,1.2H4095.5a1.2,1.2,0,0,1-1.2-1.2v-1.7a1.2,1.2,0,0,1,1.2-1.2h20.735a1.2,1.2,0,0,1,1.2,1.2Z" transform="translate(-4094.299 -2249.172)" fill="#fad332"/>
                        <rect id="Rectángulo_473" data-name="Rectángulo 473" width="0.602" height="4.103" transform="translate(1.149)" fill="#faba23"/>
                        <rect id="Rectángulo_474" data-name="Rectángulo 474" width="0.602" height="4.103" transform="translate(3.675)" fill="#faba23"/>
                        <rect id="Rectángulo_475" data-name="Rectángulo 475" width="0.602" height="4.103" transform="translate(6.2)" fill="#faba23"/>
                        <rect id="Rectángulo_476" data-name="Rectángulo 476" width="0.602" height="4.103" transform="translate(8.726)" fill="#faba23"/>
                        <rect id="Rectángulo_477" data-name="Rectángulo 477" width="0.602" height="4.103" transform="translate(11.252)" fill="#faba23"/>
                        <rect id="Rectángulo_478" data-name="Rectángulo 478" width="0.602" height="4.103" transform="translate(13.777)" fill="#faba23"/>
                        <rect id="Rectángulo_479" data-name="Rectángulo 479" width="0.602" height="4.103" transform="translate(16.303)" fill="#faba23"/>
                        <rect id="Rectángulo_480" data-name="Rectángulo 480" width="0.602" height="4.103" transform="translate(18.828)" fill="#faba23"/>
                        <rect id="Rectángulo_481" data-name="Rectángulo 481" width="0.602" height="4.103" transform="translate(21.354)" fill="#faba23"/>
                        <path id="Trazado_403" data-name="Trazado 403" d="M4117.571,2249.6H4095a1.2,1.2,0,0,1,.918-.426h20.735A1.2,1.2,0,0,1,4117.571,2249.6Z" transform="translate(-4094.716 -2249.172)" fill="#faba23"/>
                        <path id="Trazado_404" data-name="Trazado 404" d="M4117.571,2258.247H4095a1.2,1.2,0,0,0,.918.426h20.735A1.2,1.2,0,0,0,4117.571,2258.247Z" transform="translate(-4094.716 -2254.571)" fill="#faba23"/>
                    </g>
                    <g id="Grupo_430" data-name="Grupo 430" transform="translate(2.122 20.435)">
                        <path id="Trazado_405" data-name="Trazado 405" d="M4114.662,2240.264v1.7a1.2,1.2,0,0,1-1.2,1.2h-20.734a1.2,1.2,0,0,1-1.2-1.2v-1.7a1.2,1.2,0,0,1,1.2-1.2h20.734a1.2,1.2,0,0,1,1.2,1.2Z" transform="translate(-4091.523 -2239.062)" fill="#fad332"/>
                        <rect id="Rectángulo_482" data-name="Rectángulo 482" width="0.602" height="4.103" transform="translate(1.149 0)" fill="#faba23"/>
                        <rect id="Rectángulo_483" data-name="Rectángulo 483" width="0.602" height="4.103" transform="translate(3.675 0)" fill="#faba23"/>
                        <rect id="Rectángulo_484" data-name="Rectángulo 484" width="0.602" height="4.103" transform="translate(6.2 0)" fill="#faba23"/>
                        <rect id="Rectángulo_485" data-name="Rectángulo 485" width="0.602" height="4.103" transform="translate(8.726 0)" fill="#faba23"/>
                        <rect id="Rectángulo_486" data-name="Rectángulo 486" width="0.602" height="4.103" transform="translate(11.252 0)" fill="#faba23"/>
                        <rect id="Rectángulo_487" data-name="Rectángulo 487" width="0.602" height="4.103" transform="translate(13.777 0)" fill="#faba23"/>
                        <rect id="Rectángulo_488" data-name="Rectángulo 488" width="0.602" height="4.103" transform="translate(16.303 0)" fill="#faba23"/>
                        <rect id="Rectángulo_489" data-name="Rectángulo 489" width="0.602" height="4.103" transform="translate(18.829 0)" fill="#faba23"/>
                        <rect id="Rectángulo_490" data-name="Rectángulo 490" width="0.602" height="4.103" transform="translate(21.354 0)" fill="#faba23"/>
                        <path id="Trazado_406" data-name="Trazado 406" d="M4114.795,2239.488h-22.571a1.2,1.2,0,0,1,.918-.426h20.734A1.2,1.2,0,0,1,4114.795,2239.488Z" transform="translate(-4091.94 -2239.062)" fill="#faba23"/>
                        <path id="Trazado_407" data-name="Trazado 407" d="M4114.795,2248.137h-22.571a1.2,1.2,0,0,0,.918.426h20.734A1.2,1.2,0,0,0,4114.795,2248.137Z" transform="translate(-4091.94 -2244.461)" fill="#faba23"/>
                    </g>
                    <g id="Grupo_431" data-name="Grupo 431" transform="translate(2.585 16.414)">
                        <path id="Trazado_408" data-name="Trazado 408" d="M4115.8,2230.338v1.7a1.2,1.2,0,0,1-1.2,1.2h-20.734a1.2,1.2,0,0,1-1.2-1.2v-1.7a1.2,1.2,0,0,1,1.2-1.2H4114.6a1.2,1.2,0,0,1,1.2,1.2Z" transform="translate(-4092.666 -2229.136)" fill="#fad332"/>
                        <rect id="Rectángulo_491" data-name="Rectángulo 491" width="0.602" height="4.103" transform="translate(1.149 0)" fill="#faba23"/>
                        <rect id="Rectángulo_492" data-name="Rectángulo 492" width="0.602" height="4.103" transform="translate(3.675 0)" fill="#faba23"/>
                        <rect id="Rectángulo_493" data-name="Rectángulo 493" width="0.602" height="4.103" transform="translate(6.2 0)" fill="#faba23"/>
                        <rect id="Rectángulo_494" data-name="Rectángulo 494" width="0.602" height="4.103" transform="translate(8.726 0)" fill="#faba23"/>
                        <rect id="Rectángulo_495" data-name="Rectángulo 495" width="0.602" height="4.103" transform="translate(11.252 0)" fill="#faba23"/>
                        <rect id="Rectángulo_496" data-name="Rectángulo 496" width="0.602" height="4.103" transform="translate(13.777 0)" fill="#faba23"/>
                        <rect id="Rectángulo_497" data-name="Rectángulo 497" width="0.602" height="4.103" transform="translate(16.303 0)" fill="#faba23"/>
                        <rect id="Rectángulo_498" data-name="Rectángulo 498" width="0.602" height="4.103" transform="translate(18.828 0)" fill="#faba23"/>
                        <rect id="Rectángulo_499" data-name="Rectángulo 499" width="0.602" height="4.103" transform="translate(21.354 0)" fill="#faba23"/>
                        <path id="Trazado_409" data-name="Trazado 409" d="M4115.938,2229.562h-22.572a1.2,1.2,0,0,1,.919-.426h20.734A1.2,1.2,0,0,1,4115.938,2229.562Z" transform="translate(-4093.082 -2229.136)" fill="#faba23"/>
                        <path id="Trazado_410" data-name="Trazado 410" d="M4115.938,2238.211h-22.572a1.2,1.2,0,0,0,.919.426h20.734A1.2,1.2,0,0,0,4115.938,2238.211Z" transform="translate(-4093.082 -2234.535)" fill="#faba23"/>
                    </g>
                    <g id="Grupo_432" data-name="Grupo 432" transform="translate(0 12.25)">
                        <path id="Trazado_411" data-name="Trazado 411" d="M4109.424,2220.058v1.7a1.2,1.2,0,0,1-1.2,1.2h-20.735a1.2,1.2,0,0,1-1.2-1.2v-1.7a1.2,1.2,0,0,1,1.2-1.2h20.735a1.2,1.2,0,0,1,1.2,1.2Z" transform="translate(-4086.285 -2218.856)" fill="#fad332"/>
                        <rect id="Rectángulo_500" data-name="Rectángulo 500" width="0.602" height="4.103" transform="translate(1.149 0)" fill="#faba23"/>
                        <rect id="Rectángulo_501" data-name="Rectángulo 501" width="0.602" height="4.103" transform="translate(3.675 0)" fill="#faba23"/>
                        <rect id="Rectángulo_502" data-name="Rectángulo 502" width="0.602" height="4.103" transform="translate(6.201 0)" fill="#faba23"/>
                        <rect id="Rectángulo_503" data-name="Rectángulo 503" width="0.602" height="4.103" transform="translate(8.726 0)" fill="#faba23"/>
                        <rect id="Rectángulo_504" data-name="Rectángulo 504" width="0.602" height="4.103" transform="translate(11.252 0)" fill="#faba23"/>
                        <rect id="Rectángulo_505" data-name="Rectángulo 505" width="0.602" height="4.103" transform="translate(13.777 0)" fill="#faba23"/>
                        <rect id="Rectángulo_506" data-name="Rectángulo 506" width="0.602" height="4.103" transform="translate(16.303 0)" fill="#faba23"/>
                        <rect id="Rectángulo_507" data-name="Rectángulo 507" width="0.602" height="4.103" transform="translate(18.829 0)" fill="#faba23"/>
                        <rect id="Rectángulo_508" data-name="Rectángulo 508" width="0.602" height="4.103" transform="translate(21.354 0)" fill="#faba23"/>
                        <path id="Trazado_412" data-name="Trazado 412" d="M4109.557,2219.282h-22.571a1.2,1.2,0,0,1,.918-.426h20.735A1.2,1.2,0,0,1,4109.557,2219.282Z" transform="translate(-4086.702 -2218.856)" fill="#faba23"/>
                        <path id="Trazado_413" data-name="Trazado 413" d="M4109.557,2227.932h-22.571a1.2,1.2,0,0,0,.918.426h20.735A1.2,1.2,0,0,0,4109.557,2227.932Z" transform="translate(-4086.702 -2224.255)" fill="#faba23"/>
                    </g>
                    <g id="Grupo_433" data-name="Grupo 433" transform="translate(2.544 8.195)">
                        <path id="Trazado_414" data-name="Trazado 414" d="M4115.7,2210.049v1.7a1.2,1.2,0,0,1-1.2,1.2h-20.734a1.2,1.2,0,0,1-1.2-1.2v-1.7a1.2,1.2,0,0,1,1.2-1.2H4114.5a1.2,1.2,0,0,1,1.2,1.2Z" transform="translate(-4092.564 -2208.847)" fill="#fad332"/>
                        <rect id="Rectángulo_509" data-name="Rectángulo 509" width="0.602" height="4.102" transform="translate(1.149 0)" fill="#faba23"/>
                        <rect id="Rectángulo_510" data-name="Rectángulo 510" width="0.602" height="4.102" transform="translate(3.675 0)" fill="#faba23"/>
                        <rect id="Rectángulo_511" data-name="Rectángulo 511" width="0.602" height="4.102" transform="translate(6.2 0)" fill="#faba23"/>
                        <rect id="Rectángulo_512" data-name="Rectángulo 512" width="0.602" height="4.102" transform="translate(8.726 0)" fill="#faba23"/>
                        <rect id="Rectángulo_513" data-name="Rectángulo 513" width="0.602" height="4.102" transform="translate(11.252 0)" fill="#faba23"/>
                        <rect id="Rectángulo_514" data-name="Rectángulo 514" width="0.602" height="4.102" transform="translate(13.777 0)" fill="#faba23"/>
                        <rect id="Rectángulo_515" data-name="Rectángulo 515" width="0.602" height="4.102" transform="translate(16.303 0)" fill="#faba23"/>
                        <rect id="Rectángulo_516" data-name="Rectángulo 516" width="0.602" height="4.102" transform="translate(18.828 0)" fill="#faba23"/>
                        <rect id="Rectángulo_517" data-name="Rectángulo 517" width="0.602" height="4.102" transform="translate(21.354 0)" fill="#faba23"/>
                        <path id="Trazado_415" data-name="Trazado 415" d="M4115.835,2209.273h-22.571a1.2,1.2,0,0,1,.918-.426h20.734A1.2,1.2,0,0,1,4115.835,2209.273Z" transform="translate(-4092.98 -2208.847)" fill="#faba23"/>
                        <path id="Trazado_416" data-name="Trazado 416" d="M4115.835,2217.923h-22.571a1.2,1.2,0,0,0,.918.426h20.734A1.2,1.2,0,0,0,4115.835,2217.923Z" transform="translate(-4092.98 -2214.246)" fill="#faba23"/>
                    </g>
                    <g id="Grupo_434" data-name="Grupo 434" transform="translate(1.642 4.08)">
                        <path id="Trazado_417" data-name="Trazado 417" d="M4113.476,2199.891v1.7a1.2,1.2,0,0,1-1.2,1.2h-20.735a1.2,1.2,0,0,1-1.2-1.2v-1.7a1.2,1.2,0,0,1,1.2-1.2h20.735a1.2,1.2,0,0,1,1.2,1.2Z" transform="translate(-4090.337 -2198.689)" fill="#fad332"/>
                        <rect id="Rectángulo_518" data-name="Rectángulo 518" width="0.602" height="4.103" transform="translate(1.149 0)" fill="#faba23"/>
                        <rect id="Rectángulo_519" data-name="Rectángulo 519" width="0.602" height="4.103" transform="translate(3.675 0)" fill="#faba23"/>
                        <rect id="Rectángulo_520" data-name="Rectángulo 520" width="0.602" height="4.103" transform="translate(6.2 0)" fill="#faba23"/>
                        <rect id="Rectángulo_521" data-name="Rectángulo 521" width="0.602" height="4.103" transform="translate(8.726 0)" fill="#faba23"/>
                        <rect id="Rectángulo_522" data-name="Rectángulo 522" width="0.602" height="4.103" transform="translate(11.252 0)" fill="#faba23"/>
                        <rect id="Rectángulo_523" data-name="Rectángulo 523" width="0.602" height="4.103" transform="translate(13.777 0)" fill="#faba23"/>
                        <rect id="Rectángulo_524" data-name="Rectángulo 524" width="0.602" height="4.103" transform="translate(16.303 0)" fill="#faba23"/>
                        <rect id="Rectángulo_525" data-name="Rectángulo 525" width="0.602" height="4.103" transform="translate(18.829 0)" fill="#faba23"/>
                        <rect id="Rectángulo_526" data-name="Rectángulo 526" width="0.602" height="4.103" transform="translate(21.354 0)" fill="#faba23"/>
                        <path id="Trazado_418" data-name="Trazado 418" d="M4113.609,2199.115h-22.571a1.2,1.2,0,0,1,.918-.426h20.735A1.2,1.2,0,0,1,4113.609,2199.115Z" transform="translate(-4090.754 -2198.689)" fill="#faba23"/>
                        <path id="Trazado_419" data-name="Trazado 419" d="M4113.609,2207.765h-22.571a1.2,1.2,0,0,0,.918.426h20.735A1.2,1.2,0,0,0,4113.609,2207.765Z" transform="translate(-4090.754 -2204.088)" fill="#faba23"/>
                    </g>
                    <g id="Grupo_435" data-name="Grupo 435" transform="translate(2.881)">
                        <path id="Trazado_420" data-name="Trazado 420" d="M4116.534,2189.82v1.7a1.2,1.2,0,0,1-1.2,1.2H4094.6a1.2,1.2,0,0,1-1.2-1.2v-1.7a1.2,1.2,0,0,1,1.2-1.2h20.734a1.2,1.2,0,0,1,1.2,1.2Z" transform="translate(-4093.396 -2188.618)" fill="#fad332"/>
                        <rect id="Rectángulo_527" data-name="Rectángulo 527" width="0.602" height="4.103" transform="translate(1.149)" fill="#faba23"/>
                        <rect id="Rectángulo_528" data-name="Rectángulo 528" width="0.602" height="4.103" transform="translate(3.675)" fill="#faba23"/>
                        <rect id="Rectángulo_529" data-name="Rectángulo 529" width="0.602" height="4.103" transform="translate(6.2)" fill="#faba23"/>
                        <rect id="Rectángulo_530" data-name="Rectángulo 530" width="0.602" height="4.103" transform="translate(8.726)" fill="#faba23"/>
                        <rect id="Rectángulo_531" data-name="Rectángulo 531" width="0.602" height="4.103" transform="translate(11.252)" fill="#faba23"/>
                        <rect id="Rectángulo_532" data-name="Rectángulo 532" width="0.602" height="4.103" transform="translate(13.777)" fill="#faba23"/>
                        <rect id="Rectángulo_533" data-name="Rectángulo 533" width="0.602" height="4.103" transform="translate(16.303)" fill="#faba23"/>
                        <rect id="Rectángulo_534" data-name="Rectángulo 534" width="0.602" height="4.103" transform="translate(18.828)" fill="#faba23"/>
                        <rect id="Rectángulo_535" data-name="Rectángulo 535" width="0.602" height="4.103" transform="translate(21.354)" fill="#faba23"/>
                        <path id="Trazado_421" data-name="Trazado 421" d="M4116.667,2189.044H4094.1a1.2,1.2,0,0,1,.918-.426h20.734A1.2,1.2,0,0,1,4116.667,2189.044Z" transform="translate(-4093.813 -2188.618)" fill="#faba23"/>
                        <path id="Trazado_422" data-name="Trazado 422" d="M4116.667,2197.693H4094.1a1.2,1.2,0,0,0,.918.426h20.734A1.2,1.2,0,0,0,4116.667,2197.693Z" transform="translate(-4093.813 -2194.017)" fill="#faba23"/>
                    </g>
                </g>
                <g id="Grupo_437" data-name="Grupo 437" transform="translate(0 4.925)">
                    <circle id="Elipse_79" data-name="Elipse 79" cx="12.374" cy="12.374" r="12.374" transform="translate(0 7.751) rotate(-18.251)" fill="#faba23"/>
                    <path id="Trazado_423" data-name="Trazado 423" d="M4086.576,2227.544a10.171,10.171,0,0,1-14.388,5.882,10.055,10.055,0,0,1-2.291-1.639,10.168,10.168,0,0,1,6.053-17.489,10.167,10.167,0,0,1,10.626,13.246Z" transform="translate(-4061.276 -2208.793)" fill="#fad332"/>
                    <path id="Trazado_424" data-name="Trazado 424" d="M4083.18,2216.422l-14.007,14.6a10.188,10.188,0,0,1-2.422-7.135l9.2-9.588a10.2,10.2,0,0,1,7.23,2.124Z" transform="translate(-4061.276 -2208.793)" fill="#faee6c"/>
                    <path id="Trazado_425" data-name="Trazado 425" d="M4090.346,2223.537l-13.517,14.089a10.084,10.084,0,0,1-2.292-1.639l14.076-14.673A10.149,10.149,0,0,1,4090.346,2223.537Z" transform="translate(-4065.917 -2212.993)" fill="#faee6c"/>
                    <path id="Trazado_426" data-name="Trazado 426" d="M4089.087,2212.625c-1.2-.126-1.42-.008-1.959,1.057.134-1.187.015-1.406-1.057-1.96,1.2.126,1.42.008,1.959-1.057C4087.9,2211.866,4088.022,2212.085,4089.087,2212.625Z" transform="translate(-4072.778 -2206.659)" fill="#fff"/>
                    <path id="Trazado_427" data-name="Trazado 427" d="M4079.288,2260.2c-1.013-.106-1.2-.007-1.653.893.113-1,.013-1.187-.893-1.654,1.014.106,1.2.007,1.653-.892C4078.289,2259.561,4078.389,2259.745,4079.288,2260.2Z" transform="translate(-4067.229 -2235.143)" fill="#fff"/>
                </g>
            </g>
            <g id="Grupo_447" data-name="Grupo 447" transform="translate(3869.097 1969.05)">
                <g id="Grupo_443" data-name="Grupo 443" transform="translate(0 7.236)">
                    <path id="Trazado_430" data-name="Trazado 430" d="M4091.688,2098.058a13.581,13.581,0,1,1,13.581-13.581A13.6,13.6,0,0,1,4091.688,2098.058Zm0-26.491a12.91,12.91,0,1,0,12.91,12.91A12.925,12.925,0,0,0,4091.688,2071.567Z" transform="translate(-4078.107 -2070.896)" fill="#e3eaff"/>
                </g>
            </g>
            <g id="Grupo_450" data-name="Grupo 450" transform="translate(3778.956 1974.766)">
                <g id="Grupo_448" data-name="Grupo 448" transform="translate(0.139 0.139)">
                    <path id="Trazado_433" data-name="Trazado 433" d="M3869.521,2094.649a13.581,13.581,0,1,1,13.581-13.581A13.6,13.6,0,0,1,3869.521,2094.649Zm0-26.491a12.91,12.91,0,1,0,12.91,12.91A12.925,12.925,0,0,0,3869.521,2068.158Z" transform="translate(-3855.94 -2067.487)" fill="#e3eaff"/>
                </g>
                <g id="Grupo_449" data-name="Grupo 449" transform="translate(0 0)">
                    <path id="Trazado_434" data-name="Trazado 434" d="M3885.978,2094.607a8.535,8.535,0,1,1-10.823-3.663,4.565,4.565,0,1,1,6.758,0A8.566,8.566,0,0,1,3885.978,2094.607Z" transform="translate(-3864.813 -2076.762)" fill="#95a6db"/>
                </g>
            </g>
            <g id="Grupo_451" data-name="Grupo 451" transform="translate(3890.634 2008.568)">
                <path id="Trazado_435" data-name="Trazado 435" d="M4137.481,2154l-5.7-3.065-.482.9h0c-.233.433.861,1.474,2.443,2.325s3.054,1.19,3.287.757C4137.053,2154.869,4137.481,2154,4137.481,2154Z" transform="translate(-4131.27 -2150.791)" fill="#faba23"/>
                <path id="Trazado_436" data-name="Trazado 436" d="M4138.158,2153.855c-.233.433-1.7.094-3.287-.757s-2.676-1.892-2.443-2.325,1.7-.094,3.287.756S4138.392,2153.421,4138.158,2153.855Z" transform="translate(-4131.94 -2150.585)" fill="#fad332"/>
            </g>
            <g id="Grupo_452" data-name="Grupo 452" transform="translate(3865.758 2022.88)">
                <path id="Trazado_437" data-name="Trazado 437" d="M4075.631,2186.923l-5.767.937c.049.3.1.6.147.907h0c.072.438,1.427.583,3.029.322s2.842-.826,2.771-1.264C4075.8,2187.785,4075.631,2186.923,4075.631,2186.923Z" transform="translate(-4069.864 -2186.514)" fill="#faba23"/>
                <path id="Trazado_438" data-name="Trazado 438" d="M4075.678,2186.366c.071.438-1.169,1-2.771,1.265s-2.957.115-3.028-.323,1.169-1,2.771-1.265S4075.607,2185.928,4075.678,2186.366Z" transform="translate(-4069.871 -2185.914)" fill="#fad332"/>
            </g>
            <g id="Grupo_453" data-name="Grupo 453" transform="translate(3872.743 2010.447)">
                <path id="Trazado_439" data-name="Trazado 439" d="M4092.779,2158.158l-5.241-2.581-.406.824h0c-.2.4.825,1.3,2.28,2.019s2.794.975,2.991.577C4092.42,2158.961,4092.779,2158.158,4092.779,2158.158Z" transform="translate(-4087.107 -2155.434)" fill="#faba23"/>
                <path id="Trazado_440" data-name="Trazado 440" d="M4093.351,2158.007c-.2.4-1.535.14-2.991-.576s-2.477-1.621-2.28-2.02,1.535-.14,2.991.576S4093.547,2157.609,4093.351,2158.007Z" transform="translate(-4087.672 -2155.224)" fill="#fad332"/>
            </g>
            <g id="Grupo_454" data-name="Grupo 454" transform="translate(3864.565 2003.006)">
                <path id="Trazado_441" data-name="Trazado 441" d="M4072.957,2137.912l-6.036.98q.077.475.154.949h0c.074.459,1.494.61,3.17.338s2.975-.865,2.9-1.324C4073.138,2138.814,4072.957,2137.912,4072.957,2137.912Z" transform="translate(-4066.921 -2137.484)" fill="#faba23"/>
                <path id="Trazado_442" data-name="Trazado 442" d="M4073.007,2137.329c.075.459-1.224,1.051-2.9,1.324s-3.1.121-3.17-.338,1.224-1.052,2.9-1.324S4072.932,2136.87,4073.007,2137.329Z" transform="translate(-4066.929 -2136.856)" fill="#fad332"/>
            </g>
            <g id="Grupo_456" data-name="Grupo 456" transform="translate(3771.11 2010.077)">
                <rect id="Rectángulo_536" data-name="Rectángulo 536" width="42.497" height="13.633" rx="6.816" transform="translate(0 0)" fill="#e3eaff"/>
                <g id="Grupo_455" data-name="Grupo 455" transform="translate(2.206 3.027)">
                    <path id="Trazado_443" data-name="Trazado 443" d="M3852.67,2163.653v3.836a1.871,1.871,0,0,1-1.872,1.872h-7.253a1.872,1.872,0,0,1-1.871-1.872v-3.836a1.871,1.871,0,0,1,1.871-1.872h7.253a1.873,1.873,0,0,1,1.872,1.872Z" transform="translate(-3841.674 -2161.781)" fill="#faba23"/>
                    <path id="Trazado_444" data-name="Trazado 444" d="M3885.346,2170.4H3873.31a1.56,1.56,0,0,1-1.56-1.56h0a1.56,1.56,0,0,1,1.56-1.56h12.036a1.561,1.561,0,0,1,1.561,1.56h0A1.561,1.561,0,0,1,3885.346,2170.4Z" transform="translate(-3859.566 -2165.055)" fill="#95a6db"/>
                    <path id="Trazado_445" data-name="Trazado 445" d="M3920.69,2170.4h-6.031a1.56,1.56,0,0,1-1.56-1.56h0a1.56,1.56,0,0,1,1.56-1.56h6.031a1.56,1.56,0,0,1,1.561,1.56h0A1.56,1.56,0,0,1,3920.69,2170.4Z" transform="translate(-3884.164 -2165.055)" fill="#4ead60"/>
                </g>
                <path id="Trazado_446" data-name="Trazado 446" d="M3851.923,2162.157l-9.409,6.892a1.867,1.867,0,0,1-.839-1.561v-3.836a1.871,1.871,0,0,1,1.871-1.872h7.253A1.862,1.862,0,0,1,3851.923,2162.157Z" transform="translate(-3839.469 -2158.754)" fill="#fad332"/>
                <path id="Trazado_447" data-name="Trazado 447" d="M3859.113,2173.317a1.258,1.258,0,1,1-1.259-1.259A1.259,1.259,0,0,1,3859.113,2173.317Z" transform="translate(-3848.346 -2164.868)" fill="#e62552"/>
                <path id="Trazado_448" data-name="Trazado 448" d="M3862.8,2173.317a1.259,1.259,0,1,1-1.259-1.259A1.259,1.259,0,0,1,3862.8,2173.317Z" transform="translate(-3850.54 -2164.868)" fill="#95a6db"/>
            </g>
            <g id="Grupo_471" data-name="Grupo 471" transform="translate(3900.933 1993.866)">
                <path id="Trazado_449" data-name="Trazado 449" d="M4173.7,2121.778c.731-2.291.552-4.513-1.055-6.009a5.46,5.46,0,0,0-4.24-1.04h0a3.77,3.77,0,0,0-4.117.368c-2.291,1.56-1.342,3.644-2.433,4.921-.646.756-2.919.4-3.017,3.342a2.2,2.2,0,0,0,1.625,1.88c1.425.443,3,.154,3.362.909,1.227,2.593,5.939,2.673,6.945,1.129.312-.479,3.925,1.461,4.4-2.2C4175.41,2123.229,4173.05,2123.824,4173.7,2121.778Z" transform="translate(-4157.971 -2114.294)" fill="#020205"/>
                <g id="Grupo_459" data-name="Grupo 459" transform="translate(6.364 1.882)">
                    <path id="Trazado_450" data-name="Trazado 450" d="M4172.439,2123.641c-.3,2.82,1.258,5.294,3.472,5.527s4.25-1.864,4.547-4.683-1.258-5.294-3.473-5.527S4172.735,2120.822,4172.439,2123.641Z" transform="translate(-4172.402 -2118.94)" fill="#f37a50"/>
                    <path id="Trazado_451" data-name="Trazado 451" d="M4189.325,2132.84a.387.387,0,1,0,.337-.432A.387.387,0,0,0,4189.325,2132.84Z" transform="translate(-4182.467 -2126.951)"/>
                    <path id="Trazado_452" data-name="Trazado 452" d="M4181.629,2132.031a.419.419,0,1,0,.364-.467A.418.418,0,0,0,4181.629,2132.031Z" transform="translate(-4177.89 -2126.448)"/>
                    <g id="Grupo_457" data-name="Grupo 457" transform="translate(3.255 4.5)">
                        <path id="Trazado_453" data-name="Trazado 453" d="M4180.6,2130.65a.144.144,0,0,0,.086-.042,1.11,1.11,0,0,1,.919-.25.146.146,0,0,0,.057-.286,1.389,1.389,0,0,0-1.185.333.146.146,0,0,0,.122.246Z" transform="translate(-4180.437 -2130.049)" fill="#020205"/>
                    </g>
                    <g id="Grupo_458" data-name="Grupo 458" transform="translate(6.933 4.86)">
                        <path id="Trazado_454" data-name="Trazado 454" d="M4190.423,2131.719a.135.135,0,0,0,.046-.014.146.146,0,0,0,.068-.195,1.024,1.024,0,0,0-.875-.573.146.146,0,0,0,0,.291.731.731,0,0,1,.616.41A.145.145,0,0,0,4190.423,2131.719Z" transform="translate(-4189.515 -2130.937)" fill="#020205"/>
                    </g>
                    <path id="Trazado_455" data-name="Trazado 455" d="M4186.9,2135.174a3.92,3.92,0,0,0,.377.74.154.154,0,0,1-.021.21,2.111,2.111,0,0,1-1.1.305.041.041,0,0,1-.017-.079,1.959,1.959,0,0,0,.634-.365.182.182,0,0,0,.055-.156c-.017-.134-.05-.4-.059-.623A.069.069,0,0,1,4186.9,2135.174Z" transform="translate(-4180.559 -2128.573)" fill="#de623c"/>
                    <path id="Trazado_456" data-name="Trazado 456" d="M4180.669,2138.158a.116.116,0,0,1,.162-.139,9.764,9.764,0,0,0,1.008.433,9.653,9.653,0,0,0,1.056.3.117.117,0,0,1,.039.211,1.451,1.451,0,0,1-2.265-.8Z" transform="translate(-4177.317 -2130.282)" fill="#fff"/>
                </g>
                <path id="Trazado_457" data-name="Trazado 457" d="M4172.518,2122.471c2.552.535,6.84-.742,7.57-1.917.07-1.7-2.169-3.355-3.838-3.147S4172.167,2120.18,4172.518,2122.471Z" transform="translate(-4166.086 -2116.135)" fill="#020205"/>
                <path id="Trazado_458" data-name="Trazado 458" d="M4191.113,2148.747c2.627.656,7.117,6.793,7.537,11.4a4.773,4.773,0,0,1-3.088-.851l-3.569-5.133Z" transform="translate(-4177.169 -2134.79)" fill="#de623c"/>
                <g id="Grupo_460" data-name="Grupo 460" transform="translate(3.674 28.895)">
                    <path id="Trazado_459" data-name="Trazado 459" d="M4193.883,2269.873l1.407-5.541-3.49-.48c-.12,2.621-.316,5.2-.3,5.9Z" transform="translate(-4181.073 -2232.159)" fill="#f37a50"/>
                    <path id="Trazado_460" data-name="Trazado 460" d="M4171.47,2263.773h-3.644c.12.874.6,5.6.6,5.6.308.7,3.024.539,3.024.146A48.431,48.431,0,0,1,4171.47,2263.773Z" transform="translate(-4166.99 -2232.113)" fill="#f37a50"/>
                    <path id="Trazado_461" data-name="Trazado 461" d="M4183.963,2222.037l3.594.531,2.493-14.9c-.514-5.656-5.493-17.688-5.493-17.688l-5.612,1.965-.137,5.307,6.759,11.443C4184.686,2210.9,4184.083,2218.058,4183.963,2222.037Z" transform="translate(-4173.523 -2188.211)" fill="#c4204a"/>
                    <path id="Trazado_462" data-name="Trazado 462" d="M4173.423,2187.783c-.051-.35-.068-.459-.359-.634l-5.39-1.528-1.283,1.266c-1.215,4.411-.462,10.548.5,15.418-1.4,4.215-.854,12.9-.29,16.988h3.833c.222-2.73.152-7.793.169-10.24h0c.5-1.965.976-4.062,1.4-6.267a73.044,73.044,0,0,0,1.42-8.1A40.212,40.212,0,0,0,4173.423,2187.783Z" transform="translate(-4165.761 -2185.621)" fill="#e62552"/>
                </g>
                <path id="Trazado_463" data-name="Trazado 463" d="M4161.23,2147.088c-1.268.831-6.608,7.78-3.665,13.5a46.135,46.135,0,0,0,2.494-3.919l2.782-5.508Z" transform="translate(-4156.693 -2133.802)" fill="#f37a50"/>
                <path id="Trazado_464" data-name="Trazado 464" d="M4174.512,2138.165l3.346,1.9s.3,1.355.445,1.795c.306.907-.867,1.3-1.857.739a6.729,6.729,0,0,1-1.632-1.32Z" transform="translate(-4167.293 -2128.494)" fill="#f37a50"/>
                <path id="Trazado_465" data-name="Trazado 465" d="M4176.838,2164.393a21.094,21.094,0,0,1-1.614,1.757l-1.236-1.35-.009.023-.293.772-.343.9c-.287,0-8.91-1.931-8.91-1.931a23.549,23.549,0,0,1,1.932-5.977c-.287-2.27-.011-4.63-.1-5.939.7-3.51.2-4.859-.429-6.512l2.188-.646,3.938,1.389.292-.95a24.71,24.71,0,0,1,2.988.879l.933,3.893-.2,8.271A41.778,41.778,0,0,0,4176.838,2164.393Z" transform="translate(-4161.297 -2132.854)" fill="#3f964f"/>
                <path id="Trazado_466" data-name="Trazado 466" d="M4172.905,2144.412l-1.543.655c.164,1.853,4.309,2.96,4.309,2.96l.412-1.788Z" transform="translate(-4165.419 -2132.211)" fill="#0e6a41"/>
                <path id="Trazado_467" data-name="Trazado 467" d="M4183.014,2146.66l1.22,1.356s1.056-1.091.674-1.766-1.781-1.13-1.781-1.13Z" transform="translate(-4172.351 -2132.632)" fill="#0e6a41"/>
                <g id="Grupo_461" data-name="Grupo 461" transform="translate(13.88 65.455)">
                    <path id="Trazado_468" data-name="Trazado 468" d="M4192.709,2276.931a1.573,1.573,0,0,1,1.146-1.065c1.517,2.023,5.242.781,5.119,3.518-5.665-.035-8.019,0-8.019,0a19.363,19.363,0,0,1,.25-2.7l.3.052Z" transform="translate(-4190.955 -2275.866)" fill="#2c2858"/>
                    <path id="Rectángulo_537" data-name="Rectángulo 537" d="M0,0H8.022a0,0,0,0,1,0,0V0a.806.806,0,0,1-.806.806H.806A.806.806,0,0,1,0,0V0A0,0,0,0,1,0,0Z" transform="translate(0 3.443)" fill="#2c2858"/>
                </g>
                <g id="Grupo_462" data-name="Grupo 462" transform="translate(10.47 13.973)">
                    <path id="Trazado_469" data-name="Trazado 469" d="M4184.75,2166.781l-.293.772c-.266-1.777-1.257-9.216-.7-11.27.525-1.929-.131-3.963-.767-5.929-.155-.481-.315-.978-.453-1.459l.193-.056.192-.055c.136.475.3.969.45,1.446.653,2.023,1.327,4.114.771,6.159C4183.662,2158.163,4184.4,2164.269,4184.75,2166.781Z" transform="translate(-4182.538 -2148.785)" fill="#0e6a41"/>
                </g>
                <g id="Grupo_467" data-name="Grupo 467" transform="translate(4.359 65.4)">
                    <path id="Trazado_470" data-name="Trazado 470" d="M4172.021,2279.33s-.455-1.7-.5-1.915c-.045-.248-.179-.834-.207-1.134a2.455,2.455,0,0,0-1.383-.551,2.424,2.424,0,0,0-1.559.558c-.1.566-.1,1.232-.252,1.783-.115.41-.427,1.366-.427,1.366Z" transform="translate(-4167.598 -2275.731)" fill="#2c2858"/>
                    <g id="Grupo_466" data-name="Grupo 466" transform="translate(0 3.416)">
                        <g id="Grupo_465" data-name="Grupo 465">
                            <g id="Grupo_464" data-name="Grupo 464">
                                <g id="Grupo_463" data-name="Grupo 463">
                                    <path id="Trazado_471" data-name="Trazado 471" d="M4171.875,2284.215c-.106.337-1.414-.052-2.368-.052-.8,0-1.838.311-1.956.19a2.006,2.006,0,0,0-.035,1.087s.835.043,1.836,0a19.975,19.975,0,0,0,2.595-.108A1.321,1.321,0,0,0,4171.875,2284.215Z" transform="translate(-4167.452 -2284.163)" fill="#2c2858"/>
                                </g>
                            </g>
                        </g>
                    </g>
                </g>
                <g id="Grupo_468" data-name="Grupo 468" transform="translate(0.647 16.452)">
                    <path id="Trazado_472" data-name="Trazado 472" d="M4168.1,2165.22s-6.9,6.917-9.582,5.715c-.884-1.2.993-3.593,2.751-4.4s4.69-2.062,4.69-2.062Z" transform="translate(-4158.29 -2160.599)" fill="#f37a50"/>
                    <path id="Trazado_473" data-name="Trazado 473" d="M4185.706,2157.175l2.867-2.212a.283.283,0,0,1,.219-.054l1.953.354c.056.01.169.351.125.385l-1.95,1.172a.059.059,0,0,1-.032.013l-3.065.526C4185.758,2157.364,4185.654,2157.214,4185.706,2157.175Z" transform="translate(-4174.591 -2154.904)" fill="#f9cd2d"/>
                    <path id="Trazado_474" data-name="Trazado 474" d="M4186.053,2157.89l2.727-2.082a.284.284,0,0,1,.219-.054l2.018.341a.065.065,0,0,1,.029.115l-1.917,1.454a.073.073,0,0,1-.033.012l-3,.328A.064.064,0,0,1,4186.053,2157.89Z" transform="translate(-4174.791 -2155.407)" fill="#f9f93a"/>
                    <path id="Trazado_475" data-name="Trazado 475" d="M4177.03,2160.6l1.611-.807s1.021-1.112,1.341-1.444a14.27,14.27,0,0,1,1.364-.45,2.273,2.273,0,0,1,.435.107l-.932.73a1.22,1.22,0,0,0,.913-.038c.533-.213,1.527-.867,1.91-.633l.123.157s.336-.26.538-.08c.625.558-3.407,2.96-3.407,2.96l-1.68.2Z" transform="translate(-4169.438 -2156.688)" fill="#f37a50"/>
                    <path id="Trazado_476" data-name="Trazado 476" d="M4193.053,2156.452a.2.2,0,1,1,.1-.3A.227.227,0,0,1,4193.053,2156.452Z" transform="translate(-4178.767 -2155.604)" fill="#f9cd2d"/>
                </g>
                <path id="Trazado_477" data-name="Trazado 477" d="M4200.39,2175.044s-3.577,4.09-6.067,4.668c-.148-.82-.284-1.448-.284-1.448l3.4-4.468Z" transform="translate(-4178.909 -2149.691)" fill="#de623c"/>
                <path id="c" d="M4192.548,2185.338a.35.35,0,0,1,.052-.1l-.018,0c-.354-.117-.572-.418-.487-.672a.346.346,0,0,1,.063-.113.5.5,0,0,1-.222-.531.382.382,0,0,1,.132-.179.5.5,0,0,1-.23-.557.584.584,0,0,1,1.093.362.417.417,0,0,1-.1.166.567.567,0,0,1,.39.633.364.364,0,0,1-.062.112.5.5,0,0,1,.221.531.372.372,0,0,1-.118.168.427.427,0,0,1,.215.485.494.494,0,0,1-.923-.306Z" transform="translate(-4177.587 -2155.091)" fill="#de623c"/>
                <g id="Grupo_470" data-name="Grupo 470" transform="translate(5.056 6.045)">
                    <path id="Trazado_478" data-name="Trazado 478" d="M4171.354,2129.927a1.164,1.164,0,1,1-1.712-.558A1.286,1.286,0,0,1,4171.354,2129.927Z" transform="translate(-4169.174 -2129.217)" fill="#f37a50"/>
                    <g id="Grupo_469" data-name="Grupo 469" transform="translate(0.848 0.644)">
                        <path id="Trazado_479" data-name="Trazado 479" d="M4171.736,2132.277a.17.17,0,0,0,.072-.027.761.761,0,0,0,.367-.86.812.812,0,0,0-.736-.584.168.168,0,1,0-.007.337.48.48,0,0,1,.419.341.431.431,0,0,1-.229.486.168.168,0,0,0,.114.308Z" transform="translate(-4171.267 -2130.806)" fill="#de623c"/>
                    </g>
                </g>
            </g>
            <g id="Grupo_473" data-name="Grupo 473" transform="translate(3734.133 2024.072)">
                <path id="Trazado_480" data-name="Trazado 480" d="M3756.591,2192.082a6.2,6.2,0,1,1-8.413-2.465A6.2,6.2,0,0,1,3756.591,2192.082Z" transform="translate(-3744.953 -2188.856)" fill="#fff"/>
                <g id="Grupo_472" data-name="Grupo 472" transform="translate(3.311 1.793)">
                    <path id="Trazado_481" data-name="Trazado 481" d="M3757.968,2202.09l-.566-1.036a3.408,3.408,0,0,1-1.816.407l-.13-.822a3.115,3.115,0,0,0,1.718-.366,1.229,1.229,0,0,0,.671-1.673c-.308-.564-.9-.694-1.826-.587-1.271.162-2.175.043-2.663-.849a1.918,1.918,0,0,1,.646-2.5l-.566-1.036.636-.348.544.995a3.11,3.11,0,0,1,1.529-.37l.114.817a2.828,2.828,0,0,0-1.483.358c-.79.432-.829,1.066-.6,1.477.292.533.817.593,1.911.474,1.292-.147,2.117.095,2.616,1.007a2.034,2.034,0,0,1-.667,2.63l.583,1.067Z" transform="translate(-3753.125 -2193.283)" fill="#e3eaff"/>
                </g>
            </g>
            <g id="Grupo_475" data-name="Grupo 475" transform="translate(3929.078 1999.552)">
                <path id="Trazado_482" data-name="Trazado 482" d="M4237.966,2137.193a6.2,6.2,0,1,1-2.934-8.26A6.2,6.2,0,0,1,4237.966,2137.193Z" transform="translate(-4226.169 -2128.33)" fill="#fff"/>
                <g id="Grupo_474" data-name="Grupo 474" transform="translate(2.893 1.732)">
                    <path id="Trazado_483" data-name="Trazado 483" d="M4234.2,2141.235l.507-1.066a3.408,3.408,0,0,1-1.394-1.233l.59-.587a3.114,3.114,0,0,0,1.3,1.177,1.228,1.228,0,0,0,1.749-.437c.276-.581.035-1.135-.6-1.823-.875-.935-1.31-1.737-.873-2.655a1.917,1.917,0,0,1,2.4-.941l.507-1.066.654.312-.487,1.023a3.118,3.118,0,0,1,1.2,1.023l-.6.571a2.826,2.826,0,0,0-1.159-.992,1.065,1.065,0,0,0-1.551.376c-.261.549,0,1.009.737,1.826.876.96,1.164,1.771.716,2.71a2.032,2.032,0,0,1-2.521,1l-.522,1.1Z" transform="translate(-4233.309 -2132.604)" fill="#e3eaff"/>
                </g>
            </g>
            <g id="Grupo_477" data-name="Grupo 477" transform="translate(3909.355 1941.737)">
                <path id="Trazado_484" data-name="Trazado 484" d="M4189.356,1989.317a6.2,6.2,0,1,1-8.171-3.174A6.2,6.2,0,0,1,4189.356,1989.317Z" transform="translate(-4177.483 -1985.615)" fill="#d4deff"/>
                <g id="Grupo_476" data-name="Grupo 476" transform="translate(3.435 1.644)">
                    <path id="Trazado_485" data-name="Trazado 485" d="M4190.3,1998.781l-.476-1.081a3.4,3.4,0,0,1-1.844.25l-.06-.83a3.115,3.115,0,0,0,1.744-.219,1.228,1.228,0,0,0,.812-1.609c-.259-.588-.837-.768-1.77-.741-1.28.053-2.171-.143-2.581-1.073a1.918,1.918,0,0,1,.857-2.434l-.476-1.081.664-.292.457,1.037a3.117,3.117,0,0,1,1.555-.238l.044.824a2.822,2.822,0,0,0-1.508.23c-.824.363-.917.991-.729,1.419.246.556.764.66,1.864.635,1.3-.036,2.1.275,2.521,1.227a2.035,2.035,0,0,1-.89,2.564l.49,1.112Z" transform="translate(-4185.962 -1989.673)" fill="#fff"/>
                </g>
            </g>
            <g id="Grupo_478" data-name="Grupo 478" transform="translate(3728.806 1976.342)">
                <path id="Trazado_486" data-name="Trazado 486" d="M3731.8,2078.669l4.092-7.634s4.992.427,7.283,6.212c1.42,3.586,6.241,5.446,6.241,5.446l-4.114,7.674s-6.293-1.684-7.847-5.81A10.682,10.682,0,0,0,3731.8,2078.669Z" transform="translate(-3731.803 -2071.036)" fill="#d4deff"/>
                <path id="Trazado_487" data-name="Trazado 487" d="M3750.9,2091.975a3.788,3.788,0,1,1,.047-4.93A3.508,3.508,0,0,1,3750.9,2091.975Z" transform="translate(-3739.683 -2079.686)" fill="#e3eaff"/>
            </g>
            <g id="Grupo_479" data-name="Grupo 479" transform="translate(3885.341 1919.269)">
                <path id="Trazado_488" data-name="Trazado 488" d="M4123.964,1945.309l-5.759-6.468s2.118-4.54,8.338-4.7c3.855-.1,7.261-3.986,7.261-3.986l5.79,6.5s-3.747,5.329-8.156,5.369A10.68,10.68,0,0,0,4123.964,1945.309Z" transform="translate(-4118.205 -1930.153)" fill="#d4deff"/>
                <path id="Trazado_489" data-name="Trazado 489" d="M4142.155,1942.587a3.788,3.788,0,1,1-4.613-1.741A3.508,3.508,0,0,1,4142.155,1942.587Z" transform="translate(-4128.166 -1936.36)" fill="#e3eaff"/>
            </g>
            <g id="Grupo_480" data-name="Grupo 480" transform="translate(3928.933 2024.251)">
                <path id="Trazado_490" data-name="Trazado 490" d="M4225.81,2196.452l.941-7a7.6,7.6,0,0,1,7.343,2.66c2.112,2.333,6.328,2.374,6.328,2.374l-.945,7.041s-5.291.515-7.66-2.192A8.712,8.712,0,0,0,4225.81,2196.452Z" transform="translate(-4225.81 -2189.297)" fill="#d4deff"/>
                <path id="Trazado_491" data-name="Trazado 491" d="M4242,2201.6a3.091,3.091,0,1,1-1.376-3.781A2.862,2.862,0,0,1,4242,2201.6Z" transform="translate(-4232.102 -2194.098)" fill="#e3eaff"/>
            </g>
            <g id="Grupo_481" data-name="Grupo 481" transform="translate(3823.305 1959.515)">
                <path id="Trazado_492" data-name="Trazado 492" d="M3980.162,2036.888l-.971-7.233a7.847,7.847,0,0,0-7.583,2.747c-2.181,2.409-6.535,2.451-6.535,2.451l.976,7.271s5.464.532,7.91-2.264A9,9,0,0,1,3980.162,2036.888Z" transform="translate(-3965.072 -2029.499)" fill="#d4deff"/>
                <path id="Trazado_493" data-name="Trazado 493" d="M3976.632,2042.2a3.192,3.192,0,1,0,1.421-3.9A2.955,2.955,0,0,0,3976.632,2042.2Z" transform="translate(-3971.768 -2034.458)" fill="#e3eaff"/>
            </g>
            <g id="Grupo_483" data-name="Grupo 483" transform="translate(3771.11 2026.595)">
                <rect id="Rectángulo_538" data-name="Rectángulo 538" width="42.497" height="13.633" rx="6.816" transform="translate(0 0)" fill="#e3eaff"/>
                <g id="Grupo_482" data-name="Grupo 482" transform="translate(2.206 3.027)">
                    <path id="Trazado_494" data-name="Trazado 494" d="M3852.67,2204.427v3.835a1.871,1.871,0,0,1-1.872,1.872h-7.253a1.871,1.871,0,0,1-1.871-1.872v-3.835a1.871,1.871,0,0,1,1.871-1.872h7.253a1.872,1.872,0,0,1,1.872,1.872Z" transform="translate(-3841.674 -2202.555)" fill="#d6224c"/>
                    <path id="Trazado_495" data-name="Trazado 495" d="M3885.346,2211.177H3873.31a1.56,1.56,0,0,1-1.56-1.56h0a1.561,1.561,0,0,1,1.56-1.561h12.036a1.561,1.561,0,0,1,1.561,1.561h0A1.561,1.561,0,0,1,3885.346,2211.177Z" transform="translate(-3859.566 -2205.828)" fill="#95a6db"/>
                    <path id="Trazado_496" data-name="Trazado 496" d="M3920.69,2211.177h-6.031a1.56,1.56,0,0,1-1.56-1.56h0a1.561,1.561,0,0,1,1.56-1.561h6.031a1.561,1.561,0,0,1,1.561,1.561h0A1.56,1.56,0,0,1,3920.69,2211.177Z" transform="translate(-3884.164 -2205.828)" fill="#4ead60"/>
                </g>
                <path id="Trazado_497" data-name="Trazado 497" d="M3851.923,2202.931l-9.409,6.893a1.869,1.869,0,0,1-.839-1.562v-3.835a1.871,1.871,0,0,1,1.871-1.872h7.253A1.864,1.864,0,0,1,3851.923,2202.931Z" transform="translate(-3839.469 -2199.528)" fill="#e62552"/>
                <circle id="Elipse_81" data-name="Elipse 81" cx="1.259" cy="1.259" r="1.259" transform="matrix(1, -0.029, 0.029, 1, 8.214, 7.228)" fill="#fac832"/>
                <path id="Trazado_498" data-name="Trazado 498" d="M3862.8,2214.091a1.259,1.259,0,1,1-1.259-1.259A1.259,1.259,0,0,1,3862.8,2214.091Z" transform="translate(-3850.54 -2205.642)" fill="#95a6db"/>
            </g>
            <g id="Grupo_485" data-name="Grupo 485" transform="translate(3771.11 2043.113)">
                <path id="Rectángulo_539" data-name="Rectángulo 539" d="M6.816,0H35.681A6.816,6.816,0,0,1,42.5,6.816v0a6.816,6.816,0,0,1-6.816,6.816H6.816A6.816,6.816,0,0,1,0,6.816v0A6.816,6.816,0,0,1,6.816,0Z" transform="translate(0 0)" fill="#e3eaff"/>
                <g id="Grupo_484" data-name="Grupo 484" transform="translate(2.206 3.027)">
                    <path id="Trazado_499" data-name="Trazado 499" d="M3852.67,2245.2v3.835a1.871,1.871,0,0,1-1.872,1.872h-7.253a1.87,1.87,0,0,1-1.871-1.872V2245.2a1.871,1.871,0,0,1,1.871-1.872h7.253a1.873,1.873,0,0,1,1.872,1.872Z" transform="translate(-3841.674 -2243.329)" fill="#faba23"/>
                    <path id="Trazado_500" data-name="Trazado 500" d="M3885.346,2251.952H3873.31a1.56,1.56,0,0,1-1.56-1.56h0a1.56,1.56,0,0,1,1.56-1.561h12.036a1.561,1.561,0,0,1,1.561,1.561h0A1.561,1.561,0,0,1,3885.346,2251.952Z" transform="translate(-3859.566 -2246.602)" fill="#95a6db"/>
                    <path id="Trazado_501" data-name="Trazado 501" d="M3920.69,2251.952h-6.031a1.56,1.56,0,0,1-1.56-1.56h0a1.56,1.56,0,0,1,1.56-1.561h6.031a1.56,1.56,0,0,1,1.561,1.561h0A1.56,1.56,0,0,1,3920.69,2251.952Z" transform="translate(-3884.164 -2246.602)" fill="#4ead60"/>
                </g>
                <path id="Trazado_502" data-name="Trazado 502" d="M3851.923,2243.706l-9.409,6.892a1.868,1.868,0,0,1-.839-1.562V2245.2a1.871,1.871,0,0,1,1.871-1.872h7.253A1.859,1.859,0,0,1,3851.923,2243.706Z" transform="translate(-3839.469 -2240.302)" fill="#fad332"/>
                <path id="Trazado_503" data-name="Trazado 503" d="M3859.113,2254.864a1.258,1.258,0,1,1-1.259-1.258A1.259,1.259,0,0,1,3859.113,2254.864Z" transform="translate(-3848.346 -2246.416)" fill="#e62552"/>
                <path id="Trazado_504" data-name="Trazado 504" d="M3862.8,2254.864a1.259,1.259,0,1,1-1.259-1.258A1.259,1.259,0,0,1,3862.8,2254.864Z" transform="translate(-3850.54 -2246.416)" fill="#95a6db"/>
            </g>
        </g>
        <g id="Grupo_488" data-name="Grupo 488" transform="translate(-44.046 -123.895)">
            <path id="Trazado_505" data-name="Trazado 505" d="M244.167,853.642a2.759,2.759,0,0,1-.739.064,5.524,5.524,0,0,1-2.886-.741.349.349,0,0,0-.326-.054c-.579.142-1.143.3-1.716.447-.118.034-.131.014-.1-.108.152-.525.294-1.064.46-1.613a.4.4,0,0,0-.065-.383,5.278,5.278,0,0,1,.189-5.96,5.069,5.069,0,0,1,5.412-2.084,5.016,5.016,0,0,1,4.064,4.037A5.277,5.277,0,0,1,244.167,853.642Zm5.341-6.7A6.407,6.407,0,0,0,243.267,842a8.377,8.377,0,0,0-1.223.127,6.39,6.39,0,0,0-4.382,9.323.42.42,0,0,1,.059.318c-.3.977-.574,1.982-.839,2.972-.044.172-.044.172.12.128,1.037-.285,2.064-.544,3.1-.8a.281.281,0,0,1,.231.015,6.4,6.4,0,0,0,9.177-7.136Z" transform="translate(51.604 361)" fill="#333" fill-rule="evenodd"/>
            <path id="Trazado_506" data-name="Trazado 506" d="M258.781,866.378a1.72,1.72,0,0,1-.665-.089,6.455,6.455,0,0,1-3.462-2.546,3.612,3.612,0,0,1-.744-1.506,1.748,1.748,0,0,1,.576-1.711,1,1,0,0,1,.854-.128.685.685,0,0,1,.142.172c.181.456.375.878.56,1.31a.339.339,0,0,1-.027.27,2.5,2.5,0,0,1-.392.529.242.242,0,0,0-.039.353,4.321,4.321,0,0,0,2.184,1.875.25.25,0,0,0,.329-.074c.164-.192.327-.4.478-.6a.27.27,0,0,1,.356-.089c.313.142.623.29.922.427a1.338,1.338,0,0,0,.215.1c.316.162.316.181.28.52a1.336,1.336,0,0,1-1.141,1.172A1.169,1.169,0,0,1,258.781,866.378Z" transform="translate(37.765 346.073)" fill="#333" fill-rule="evenodd"/>
        </g>
        <g id="Grupo_489" data-name="Grupo 489" transform="translate(37.515 -131.767)">
            <line id="Línea_24" data-name="Línea 24" y1="3.07" x2="3.07" transform="translate(121.739 1214.627)" fill="none" stroke="#333" stroke-linecap="round" stroke-linejoin="round" stroke-width="1"/>
            <path id="Trazado_508" data-name="Trazado 508" d="M79.271,865a.271.271,0,1,1-.1.021A.269.269,0,0,1,79.271,865Z" transform="translate(42.497 349.514)" fill="none" stroke="#333" stroke-linecap="round" stroke-linejoin="round" stroke-width="1"/>
            <path id="Trazado_510" data-name="Trazado 510" d="M93.271,879a.271.271,0,1,1-.1.021A.269.269,0,0,1,93.271,879Z" transform="translate(31.511 338.317)" fill="none" stroke="#333" stroke-linecap="round" stroke-linejoin="round" stroke-width="1"/>
            <path id="Trazado_511" data-name="Trazado 511" d="M67.4,860.957v-9.172a1.188,1.188,0,0,1,1.225-1.146h6.123a1.188,1.188,0,0,1,1.225,1.146v9.172l-1.837-1.147-1.225,1.147-1.225-1.147-1.225,1.147-1.225-1.147L67.4,860.957" transform="translate(51.604 361)" fill="none" stroke="#333" stroke-linecap="round" stroke-linejoin="round" stroke-width="1"/>
        </g>
    </g>
</svg>
