<svg xmlns="http://www.w3.org/2000/svg" width="217.641" height="149.919" viewBox="0 0 217.641 149.919">
    <g id="Grupo_637" data-name="Grupo 637" transform="translate(-98.491 -623.559)">
        <path id="Trazado_330" data-name="Trazado 330" d="M12444.983,2337.5c-29.165,1.749,88.5-146.592-22.629-125.975s-71.907,77.438-71.907,77.438,34.193,22.125-70.9,45.759,139.792,28.662,168.454,22.125S12474.148,2335.751,12444.983,2337.5Z" transform="translate(-12155 -1586)" fill="#7af1f9"/>
        <g id="Grupo_392" data-name="Grupo 392" transform="translate(-802.79 126.983)">
            <ellipse id="Elipse_70" data-name="Elipse 70" cx="62.143" cy="1.773" rx="62.143" ry="1.773" transform="translate(935.795 634.75)" opacity="0.1"/>
            <g id="Grupo_380" data-name="Grupo 380" transform="translate(1027.939 551.999)" opacity="0.5">
                <path id="Trazado_253" data-name="Trazado 253" d="M2421.652,1812.442c-.621.884-8.658,8.867-28.488,4.215,0,0,4.478-2.161,12.979-2.33,8.308-.163,14.248-1.005,15.4-1.853a.723.723,0,0,0,.072-.059C2421.7,1812.335,2421.717,1812.351,2421.652,1812.442Z" transform="translate(-2385.064 -1758.729)" fill="#80c251"/>
                <path id="Trazado_254" data-name="Trazado 254" d="M2283.212,1483.133a0,0,0,0,1,0,0c-.1-.177-6.741-11.515-7.266-14.864-.547-3.491-.1-8.051-.046-11.472a11.086,11.086,0,0,0-.433-4.073c-.021-.049-.044-.1-.067-.142C2275.646,1453.042,2283.568,1467.932,2283.212,1483.133Z" transform="translate(-2275.399 -1423.694)" fill="#80c251"/>
                <path id="Trazado_255" data-name="Trazado 255" d="M2491.389,1700s-4.363.265-5.65.948c-2.448,1.3-7.669,1.231-13.048.291-3.324-.582-5.279-.552-12.986,1.9a.115.115,0,0,0,.014-.007c.461-.254,10.407-5.648,18.048-4.312,7.825,1.367,8.145-.892,9.958-.63A8.887,8.887,0,0,1,2491.389,1700Z" transform="translate(-2447.028 -1652.386)" fill="#80c251"/>
                <path id="Trazado_256" data-name="Trazado 256" d="M2311.05,1389.143c-.064-5.172-3.463-11.39-4.3-13.281s-1.186-5.387-1-9.059-4.619-8.432-4.619-8.432c6.073,2.175,8.5,7.859,8.421,10.216a28.724,28.724,0,0,0,1.946,10.064C2312.989,1382.792,2311.05,1389.143,2311.05,1389.143Z" transform="translate(-2299.367 -1335.965)" fill="#80c251"/>
                <path id="Trazado_257" data-name="Trazado 257" d="M2591.17,1542.884c-2.028,2.732-8.9,7.195-16.176,6.081-7.158-1.1-16.16.536-16.44.587l.009,0c.105-.029.217-.067.336-.112,2.335-.884,7.414-4.542,16.224-3.341A25.15,25.15,0,0,0,2591.17,1542.884Z" transform="translate(-2539.078 -1507.786)" fill="#80c251"/>
                <path id="Trazado_258" data-name="Trazado 258" d="M2399.307,1205.8c-.129-.11-.2-.166-.2-.166A1.069,1.069,0,0,1,2399.307,1205.8Z" transform="translate(-2390.598 -1193.736)" fill="#80c251"/>
                <path id="Trazado_259" data-name="Trazado 259" d="M2411.755,1239.821s-3.154-.33-5.143-15.467c-1.332-10.145-3.04-14.089-4-15.574,0,0-.005-.008-.007-.012a4.189,4.189,0,0,0-.525-.674c1.254,1.068,7.864,7.121,7.445,15.741-.462,9.512,1.308,14.031,2.225,15.981A.012.012,0,0,1,2411.755,1239.821Z" transform="translate(-2393.369 -1196.024)" fill="#80c251"/>
                <path id="Trazado_260" data-name="Trazado 260" d="M2653.689,1459.772l0,0-.015.008c-.416.262-7.146,4.452-11.412,5.835-4.37,1.418-14.772.774-14.936.763.106-.055,6.406-3.244,12.261-3.235S2653.563,1459.825,2653.689,1459.772Z" transform="translate(-2603.116 -1430.391)" fill="#80c251"/>
                <path id="Trazado_261" data-name="Trazado 261" d="M2526.713,1107.564l0,0a26.034,26.034,0,0,1-6.982-17.063c-.417-10.9,2.584-9.717,1.259-17.129a.013.013,0,0,0,0,.005c.1.2,3.309,6.832,1.493,17.779C2522.48,1091.152,2521.625,1098.309,2526.713,1107.564Z" transform="translate(-2502.883 -1070.565)" fill="#80c251"/>
                <path id="Trazado_262" data-name="Trazado 262" d="M2704.235,1327.47c-2.965.59-10.8,2.076-12.114,2.325h-.007l-.183.036s.027-.031.08-.087a18.709,18.709,0,0,1,12.1-5.706c7.291-.329,13.235-4.81,13.42-4.95,0,0,0,0,0,0C2714.359,1324.055,2707.478,1326.825,2704.235,1327.47Z" transform="translate(-2663.28 -1299.381)" fill="#80c251"/>
                <path id="Trazado_263" data-name="Trazado 263" d="M2632.5,1094.539a.031.031,0,0,1-.007-.01c-.211-.323-4.693-7.29-3.738-15.069.979-7.961,1.847-11.477,1.062-14.061h0a27.987,27.987,0,0,1,1.458,16.668s-.563,3.593,1.218,12.443C2632.495,1094.52,2632.5,1094.531,2632.5,1094.539Z" transform="translate(-2604.324 -1063.146)" fill="#80c251"/>
                <path id="Trazado_264" data-name="Trazado 264" d="M2743.569,1057.471a34.3,34.3,0,0,1-.392-13.594c1.308-7.553,1.754-10.091,1-11.206a5.28,5.28,0,0,1,.5.631c.009.012.018.026.026.039,1.063,1.546,3.177,5.791.993,12.964-2,6.565-2.223,9.473-2.185,10.609A3.3,3.3,0,0,0,2743.569,1057.471Z" transform="translate(-2710.543 -1032.668)" fill="#80c251"/>
                <path id="Trazado_265" data-name="Trazado 265" d="M2755.791,1394.268h0s0,0,0,0Z" transform="translate(-2722.747 -1369.392)" fill="#80c251"/>
                <path id="Trazado_266" data-name="Trazado 266" d="M3033.244,1190.266l0,.019Z" transform="translate(-2981.113 -1179.423)" fill="#80c251"/>
                <path id="Trazado_267" data-name="Trazado 267" d="M2783.748,1199.327c-7.715,2.626-8.993,3.082-9.03,3.1v0a40.047,40.047,0,0,1,8.669-5.509c4.991-2.344,8.664-5.19,9.079-6.256,0-.01.006-.021.01-.03a.411.411,0,0,0,.022-.083C2792.437,1190.917,2791.331,1196.746,2783.748,1199.327Z" transform="translate(-2740.373 -1179.68)" fill="#80c251"/>
                <path id="Trazado_268" data-name="Trazado 268" d="M2328.672,1313.919a2.853,2.853,0,0,1,.026-.326c.009-.1.028-.182.043-.271l.049-.262c.019-.085.042-.167.063-.25.044-.165.08-.335.131-.495l.153-.48.076-.24c.026-.08.058-.156.086-.234l.176-.465c.06-.154.114-.312.18-.463l.2-.453.2-.452c.065-.151.13-.3.2-.448l.43-.882.215-.441.231-.431.462-.861.231-.43.245-.422.491-.842c.165-.28.325-.563.493-.84l.517-.824.517-.824c.173-.274.341-.552.524-.818l1.08-1.615c2.9-4.288,6.07-8.377,9.336-12.375,1.622-2.011,3.281-3.98,4.91-5.979s3.257-4,4.847-6.024c.4-.508.8-1.01,1.187-1.524l1.167-1.539c.758-1.04,1.524-2.077,2.2-3.172.177-.269.332-.55.489-.83s.3-.568.444-.855.266-.585.395-.88.253-.593.385-.888a32.633,32.633,0,0,1,1.814-3.416,32.632,32.632,0,0,0-1.742,3.447c-.126.3-.247.595-.366.894s-.245.6-.378.892-.27.589-.429.87-.3.572-.475.846c-.655,1.116-1.4,2.172-2.14,3.23l-1.138,1.566c-.378.523-.772,1.033-1.158,1.551-1.55,2.063-3.136,4.1-4.727,6.128s-3.211,4.041-4.785,6.077c-3.175,4.054-6.245,8.194-9.038,12.505l-1.037,1.622c-.176.268-.337.546-.5.82l-.494.825-.494.825c-.161.277-.312.558-.469.837l-.466.838-.232.42-.218.426-.435.852-.218.426-.2.433-.4.865c-.069.143-.128.29-.188.436l-.18.438-.18.438c-.061.146-.107.295-.162.442l-.157.443c-.025.074-.054.147-.077.221l-.066.222-.132.444c-.044.148-.071.295-.107.442-.017.073-.036.147-.05.22l-.035.214c-.011.07-.027.146-.03.207s-.014.147-.013.155a.637.637,0,1,1-1.266.139.627.627,0,0,1,0-.071Z" transform="translate(-2325.008 -1246.568)" fill="#945d25"/>
                <path id="Trazado_269" data-name="Trazado 269" d="M2797.9,1048.622c-4.433,5.033-5.8,7.779-5.92,8.038l-.009.02s-.042-4.312,4.742-11.033c4.106-5.766,4.588-8.474,4.643-9.127,0-.02,0-.036,0-.052a.31.31,0,0,0,0-.036.444.444,0,0,0,0-.054.086.086,0,0,1,0-.012C2801.4,1036.609,2802.48,1043.423,2797.9,1048.622Z" transform="translate(-2756.437 -1036.109)" fill="#80c251"/>
                <path id="Trazado_270" data-name="Trazado 270" d="M2421.652,1813.152c-.621.884-8.658,8.867-28.488,4.215,0,0,21.74,1.244,28.377-4.183.025-.019.048-.04.072-.059Z" transform="translate(-2385.064 -1759.44)" opacity="0.1"/>
                <path id="Trazado_271" data-name="Trazado 271" d="M2286.963,1540.195c-.1-.177-6.741-11.515-7.266-14.864-.547-3.491-.1-8.051-.046-11.472A104.551,104.551,0,0,0,2286.963,1540.195Z" transform="translate(-2279.151 -1480.758)" opacity="0.1"/>
                <path id="Trazado_272" data-name="Trazado 272" d="M2491.524,1717.571s-4.363.265-5.65.948c-2.448,1.3-7.669,1.232-13.048.291-3.325-.582-5.28-.553-12.986,1.9a.1.1,0,0,0,.014-.007c.45-.2,9.747-4.329,15.134-3.027a22.255,22.255,0,0,0,10.836-.353A11.074,11.074,0,0,1,2491.524,1717.571Z" transform="translate(-2447.154 -1669.975)" opacity="0.1"/>
                <path id="Trazado_273" data-name="Trazado 273" d="M2311.05,1389.143c-.064-5.172-3.463-11.39-4.3-13.281s-1.186-5.387-1-9.059-4.619-8.432-4.619-8.432,5.5,3.955,5.33,6.715.886,8.832,2.785,11.967S2311.184,1387.9,2311.05,1389.143Z" transform="translate(-2299.367 -1335.965)" opacity="0.1"/>
                <path id="Trazado_274" data-name="Trazado 274" d="M2591.17,1542.884c-2.028,2.732-8.9,7.195-16.176,6.081-7.158-1.1-16.16.536-16.44.587l.009,0c.04-.014.155-.053.336-.112,1.786-.582,10.008-3.093,15.448-1.921C2580.478,1548.836,2589.276,1545.259,2591.17,1542.884Z" transform="translate(-2539.078 -1507.786)" opacity="0.1"/>
                <path id="Trazado_275" data-name="Trazado 275" d="M2653.671,1459.945c-.416.262-7.146,4.452-11.412,5.835-4.37,1.418-14.772.774-14.936.763.147-.031,6.506-1.371,10.164-1.675C2641.18,1464.563,2649.578,1462.386,2653.671,1459.945Z" transform="translate(-2603.116 -1430.552)" opacity="0.1"/>
                <path id="Trazado_276" data-name="Trazado 276" d="M2418.95,1249.106s-3.154-.33-5.143-15.467c-1.332-10.145-3.04-14.089-4-15.574,4.032,5.759,4.781,9.031,4.89,12.35.461,13.936,4.117,18.5,4.247,18.687Z" transform="translate(-2400.565 -1205.309)" opacity="0.1"/>
                <path id="Trazado_277" data-name="Trazado 277" d="M2692.011,1474.063l.1.051-.183.036S2691.958,1474.119,2692.011,1474.063Z" transform="translate(-2663.28 -1443.699)" fill="#80c251"/>
                <path id="Trazado_278" data-name="Trazado 278" d="M2706.815,1327.47c-2.965.59-10.8,2.076-12.114,2.325.209-.112,6.947-3.7,11.469-3.639,4.589.058,10.342-3.352,13.944-7.068,0,0,0,0,0,0C2716.939,1324.055,2710.058,1326.825,2706.815,1327.47Z" transform="translate(-2665.86 -1299.381)" opacity="0.1"/>
                <path id="Trazado_279" data-name="Trazado 279" d="M2783.748,1199.07c-7.715,2.626-8.993,3.082-9.03,3.1v0a81.18,81.18,0,0,1,10.392-4.932c4.092-1.4,6.829-5,7.356-6.833,0-.01.006-.021.01-.03.01-.035.018-.069.026-.1l0,.019C2792.437,1190.659,2791.331,1196.489,2783.748,1199.07Z" transform="translate(-2740.373 -1179.423)" opacity="0.1"/>
                <path id="Trazado_280" data-name="Trazado 280" d="M2798.02,1048.622c-4.433,5.033-5.8,7.779-5.92,8.038a31.316,31.316,0,0,1,7.1-10.8c1.919-2.147,2.238-8.272,2.279-9.344,0-.02,0-.036,0-.052a.336.336,0,0,1,0-.036c0-.023,0-.042,0-.054a.086.086,0,0,1,0-.012C2801.523,1036.609,2802.6,1043.423,2798.02,1048.622Z" transform="translate(-2756.558 -1036.109)" opacity="0.1"/>
                <path id="Trazado_281" data-name="Trazado 281" d="M2526.708,1107.559a26.034,26.034,0,0,1-6.982-17.063c-.417-10.9,2.584-9.717,1.259-17.129a.013.013,0,0,0,0,.005c.066.215,2,6.5.4,19.086C2521.383,1092.459,2521.42,1100.974,2526.708,1107.559Z" transform="translate(-2502.883 -1070.565)" opacity="0.1"/>
                <path id="Trazado_282" data-name="Trazado 282" d="M2632.491,1094.53c-.211-.323-4.693-7.29-3.738-15.069.979-7.961,1.847-11.477,1.062-14.061h0c.077.2,2.277,6.14.525,14.658a19.973,19.973,0,0,0,2.151,14.454Z" transform="translate(-2604.324 -1063.146)" opacity="0.1"/>
                <path id="Trazado_283" data-name="Trazado 283" d="M2743.588,1057.5h0s0,0,0,0,0,0,0,0v-.005s0,0,0,0,0,0,0-.008,0-.009,0-.015a.1.1,0,0,0,0-.017.083.083,0,0,1,0-.021,34.3,34.3,0,0,1-.392-13.595c1.308-7.553,1.754-10.091,1-11.206l0,0a3.2,3.2,0,0,1,.5.634l.026.039c.742,1.187,1.821,4.032.126,9.282a37.111,37.111,0,0,0-1.317,14.291C2743.551,1057.243,2743.582,1057.463,2743.588,1057.5Z" transform="translate(-2710.543 -1032.624)" opacity="0.1"/>
            </g>
            <g id="Smartphone" transform="translate(979.856 516.497)">
                <rect id="Rectángulo_456" data-name="Rectángulo 456" width="63.737" height="119.059" rx="8" transform="translate(0 0)" fill="#707070"/>
                <rect id="Rectángulo_457" data-name="Rectángulo 457" width="59.119" height="99.263" rx="4" transform="translate(2.309 7.079)" fill="#fff"/>
                <path id="Trazado_284" data-name="Trazado 284" d="M1910.552,564.785h-19.9a.552.552,0,0,1-.55-.55h0a.552.552,0,0,1,.55-.55h19.9a.552.552,0,0,1,.55.55h0A.552.552,0,0,1,1910.552,564.785Z" transform="translate(-1868.521 -560.438)" fill="#d3d3d3"/>
                <circle id="Elipse_71" data-name="Elipse 71" cx="4.514" cy="4.514" r="4.514" transform="translate(26.439 116.238) rotate(-76.717)" fill="#fff" opacity="0.3"/>
            </g>
            <g id="Grupo_381" data-name="Grupo 381" transform="translate(987.296 595.698)">
                <rect id="Rectángulo_458" data-name="Rectángulo 458" width="48.008" height="11.271" rx="5.636" transform="translate(0 0)" fill="#f0562d"/>
            </g>
            <g id="Grupo_385" data-name="Grupo 385" transform="translate(938.027 536.211)">
                <g id="Grupo_383" data-name="Grupo 383">
                    <g id="Grupo_382" data-name="Grupo 382">
                        <path id="Trazado_285" data-name="Trazado 285" d="M1348.6,2206.047s3.642,1.038,5.782-.666c0,0,3.3,3.46,6.839,3.722,0,0,.611.655,0,.786s-7.555.393-8.865-.568a4.581,4.581,0,0,1-3.756-.175C1347.685,2208.58,1348.6,2206.047,1348.6,2206.047Z" transform="translate(-1322.059 -2108.927)" fill="#1e1e1e"/>
                        <path id="Trazado_286" data-name="Trazado 286" d="M1031.773,2203.46s-3.548,1.01-5.632-.648c0,0-3.216,3.371-6.662,3.626,0,0-.6.638,0,.766s7.36.383,8.636-.553a4.463,4.463,0,0,0,3.659-.17C1032.665,2205.928,1031.773,2203.46,1031.773,2203.46Z" transform="translate(-1015.708 -2106.534)" fill="#1e1e1e"/>
                        <path id="Trazado_287" data-name="Trazado 287" d="M1116.442,1510l-1.969,47.906s3.946,1.847,6.025.424l1.293-20.1,4.107-18.271,6.926,17.943-1.969,20.653s4.9,1.033,6.344-.72l2.341-21.285a4.889,4.889,0,0,0-.1-1.654l-5.495-23.18S1121.4,1513.828,1116.442,1510Z" transform="translate(-1104.414 -1461.376)" fill="#1a4966"/>
                        <path id="Trazado_288" data-name="Trazado 288" d="M1235.114,995.8a3.427,3.427,0,0,0,2.112-.795l-.225,5.753h-5.469l-.721-6.756A5.62,5.62,0,0,0,1235.114,995.8Z" transform="translate(-1212.75 -980.868)" fill="#fff0d7"/>
                        <path id="Trazado_289" data-name="Trazado 289" d="M1231.94,939.275l-.156,3.98a2.839,2.839,0,0,1-2.272,1.031c-2.28,0-3.6-1.513-4.358-3.3l-.21-1.965Z" transform="translate(-1207.286 -929.673)" fill="#f4e5cd"/>
                        <path id="Trazado_290" data-name="Trazado 290" d="M1220.585,848.123a2.839,2.839,0,0,1-2.272,1.031c-2.28,0-3.6-1.513-4.358-3.3a16.061,16.061,0,0,1-1.036-5.715l.943-.9,1.755-1.666,5.839-.716a32.41,32.41,0,0,1,.524,5.349C1221.995,844.439,1221.7,846.808,1220.585,848.123Z" transform="translate(-1196.087 -834.541)" fill="#fff0d7"/>
                        <path id="Trazado_291" data-name="Trazado 291" d="M1234.625,969.864l-.021.551a3.428,3.428,0,0,1-2.112.795,5.62,5.62,0,0,1-4.3-1.8l-.194-1.816c.761,1.786,2.078,3.3,4.358,3.3A2.839,2.839,0,0,0,1234.625,969.864Z" transform="translate(-1210.127 -956.282)" fill="#eedec9"/>
                        <path id="Trazado_292" data-name="Trazado 292" d="M1220.585,880.376a2.839,2.839,0,0,1-2.272,1.031c-2.28,0-3.6-1.513-4.358-3.3a16.061,16.061,0,0,1-1.036-5.715l.943-.9,8.118,2.966C1221.995,876.692,1221.7,879.061,1220.585,880.376Z" transform="translate(-1196.087 -866.794)" fill="#fff0d7"/>
                        <path id="Trazado_293" data-name="Trazado 293" d="M1195.151,807.843s6.879,1.909,9.637-2.854c0,0-4.495-1.884-6.98-1.884s-3.911,2.679-3.911,2.679-3.415,2.068,1.3,9.242Z" transform="translate(-1177.262 -803.104)" fill="#082738"/>
                        <path id="Trazado_294" data-name="Trazado 294" d="M1205.614,896.37c.492.7.543,1.511.113,1.814s-1.178-.018-1.67-.716-.543-1.511-.113-1.814S1205.121,895.671,1205.614,896.37Z" transform="translate(-1187.459 -889.181)" fill="#fff0d7"/>
                        <path id="Trazado_295" data-name="Trazado 295" d="M1149.4,1031.006l-1.309,1.514-5,1.382v31.763s9.614,3.016,17.5,0v-31.606l-4.147-1.225-.9-1.445-3.115,2.985Z" transform="translate(-1131.072 -1015.33)" fill="#f5882e"/>
                        <path id="Trazado_296" data-name="Trazado 296" d="M1408.887,1091.67l-3.414,2.677s-.885.632-1.518,0-6.446-8.947-6.446-8.947v-10.012s.9.559,3.3,4.493,4.9,7.888,4.9,7.888l1.212-.692A11.048,11.048,0,0,0,1408.887,1091.67Z" transform="translate(-1367.982 -1056.66)" fill="#f5882e"/>
                        <path id="Trazado_297" data-name="Trazado 297" d="M980.263,1073.114v9.3s-6.639,5-6.758,8.58a4.323,4.323,0,0,0,.512,1.975,11.993,11.993,0,0,0-3.687,2.541l-.052-.068c-3.188-4.172-1.693-7.674-1.693-7.674C971.538,1080.68,980.263,1073.114,980.263,1073.114Z" transform="translate(-968.235 -1054.542)" fill="#f5882e"/>
                        <path id="Trazado_298" data-name="Trazado 298" d="M1547.437,1125.757a7.257,7.257,0,0,1-2.369.6l-8.844,6.937a11.043,11.043,0,0,1-1.972-4.593l8.172-4.667s1.2-4.991,4.622-3.75l.119-.08a6.518,6.518,0,0,1,1.206.828c-.01.007.147.149.147.149S1549.012,1124.182,1547.437,1125.757Z" transform="translate(-1495.319 -1098.281)" fill="#fff0d7"/>
                        <path id="Trazado_299" data-name="Trazado 299" d="M1010.962,1374.993c-2.009.4-3.7-2.591-3.7-2.591a51.175,51.175,0,0,1-8.567-8.118,11.994,11.994,0,0,1,3.687-2.541c1.647,3.394,6.69,7.352,6.69,7.352l2.558,1.22C1014.19,1371.535,1012.971,1374.593,1010.962,1374.993Z" transform="translate(-996.601 -1323.317)" fill="#fff0d7"/>
                    </g>
                    <path id="Trazado_300" data-name="Trazado 300" d="M1219.823,1034.107l-2.165,2.091-1.933-3.678,1.309-1.514Z" transform="translate(-1198.701 -1015.33)" fill="#f7fbff"/>
                    <path id="Trazado_301" data-name="Trazado 301" d="M1282.25,1039.325l1.885,2.279,1.9-3.59-.9-1.445Z" transform="translate(-1260.651 -1020.51)" fill="#f7fbff"/>
                </g>
                <g id="Grupo_384" data-name="Grupo 384" transform="translate(48.494 18.191)">
                    <path id="Trazado_302" data-name="Trazado 302" d="M1673.25,1075.766l3.207-8.2,2.93.653-3.425,8.631Z" transform="translate(-1673.25 -1067.571)" fill="#5e5f5e"/>
                    <path id="Trazado_303" data-name="Trazado 303" d="M1675.825,1078.159l2.461,1.011,3.285-8.326-2.672-.594Z" transform="translate(-1675.648 -1070.065)" fill="#55c8e9"/>
                    <path id="Trazado_304" data-name="Trazado 304" d="M1716.1,1077.068l.124.108-3.427,8.522h-.121Z" transform="translate(-1709.964 -1076.415)" fill="#353535"/>
                </g>
                <path id="Trazado_305" data-name="Trazado 305" d="M1677.507,1120.447s1.053-.825,1.807-.587-.724,1.157-.724,1.157l-1.385,1Z" transform="translate(-1628.44 -1098.032)" fill="#fff0d7"/>
                <path id="Trazado_306" data-name="Trazado 306" d="M1719.089,1139.992a4.285,4.285,0,0,1,0-2.079c.314-.795,1.292-2.4,1.423-2.182a9.916,9.916,0,0,1-.334,2.179Z" transform="translate(-1667.312 -1112.832)" fill="#fff0d7"/>
            </g>
            <g id="Gold_coins" data-name="Gold coins" transform="translate(1026.425 605.053)">
                <g id="Grupo_386" data-name="Grupo 386" transform="translate(0)">
                    <path id="Trazado_307" data-name="Trazado 307" d="M2285.425,1819.96a16.011,16.011,0,0,1-23.239,14.3c-.332-.166-.653-.343-.971-.532a16.018,16.018,0,1,1,20.511-24c.236.281.465.572.679.875a15.925,15.925,0,0,1,3.02,9.358Z" transform="translate(-2253.392 -1803.945)" fill="#fddb00"/>
                    <circle id="Elipse_72" data-name="Elipse 72" cx="12.625" cy="12.625" r="12.625" transform="translate(3.393 3.391)" fill="#eab120"/>
                    <circle id="Elipse_73" data-name="Elipse 73" cx="12.625" cy="12.625" r="12.625" transform="translate(3.072 3.712)" fill="#fcbf10"/>
                </g>
                <path id="Trazado_308" data-name="Trazado 308" d="M2304.766,1819.973l-2.245,2.628-.3.347-15.727,18.4-.288.336-1.957,2.292a16.106,16.106,0,0,1-6.121-6.571l2.145-2.51.306-.358,14.01-16.387.281-.329,2.451-2.868A15.98,15.98,0,0,1,2304.766,1819.973Z" transform="translate(-2276.432 -1814.192)" fill="#fcbf10" style="mix-blend-mode: overlay;isolation: isolate"/>
                <path id="Trazado_309" data-name="Trazado 309" d="M2403.537,1904.66l-2.662,3.112-.31.365-12.441,14.556-.277.321-2.388,2.795a15.865,15.865,0,0,1-4.223-1.44l2-2.341.288-.336,15.35-17.953.3-.354,2.285-2.673A15.87,15.87,0,0,1,2403.537,1904.66Z" transform="translate(-2372.442 -1894.058)" fill="#fcbf10" style="mix-blend-mode: overlay;isolation: isolate"/>
                <g id="Grupo_388" data-name="Grupo 388" transform="translate(10.628 6.618)">
                    <g id="Grupo_387" data-name="Grupo 387">
                        <path id="Trazado_310" data-name="Trazado 310" d="M2411.955,1919.6v-2.267a9.637,9.637,0,0,1-4.044-1.023l.71-2.782a8.6,8.6,0,0,0,3.96,1.044c1.357,0,2.291-.536,2.291-1.477,0-.912-.765-1.47-2.536-2.065-2.548-.862-4.285-2.057-4.285-4.357,0-2.109,1.471-3.755,4.027-4.245v-2.264h2.341v2.1a8.55,8.55,0,0,1,3.451.779l-.71,2.693a7.62,7.62,0,0,0-3.421-.823c-1.533,0-2.038.681-2.038,1.347,0,.776.83,1.289,2.851,2.037,2.837,1,3.969,2.309,3.969,4.469,0,2.119-1.487,3.911-4.224,4.385v2.446Z" transform="translate(-2407.911 -1900.164)" fill="#bf8f2d"/>
                    </g>
                </g>
            </g>
            <g id="Grupo_389" data-name="Grupo 389" transform="translate(1003.821 548.431)">
                <path id="Trazado_311" data-name="Trazado 311" d="M1988.3,1149.344a1.716,1.716,0,0,0,2.955.325l.3-.327c-.732-.378-3.072-1.59-5.19-2.725C1987.429,1148.12,1988.3,1149.344,1988.3,1149.344Z" transform="translate(-1982.132 -1135.21)" fill="#ed3079"/>
                <path id="Trazado_312" data-name="Trazado 312" d="M1934.777,1018.335l-1.62.883a2.177,2.177,0,0,0-.912,2.878c.052-.064.085-.1.085-.1Z" transform="translate(-1931.476 -1015.751)" fill="#ed3079"/>
                <path id="Trazado_313" data-name="Trazado 313" d="M2023.443,981.455a1.277,1.277,0,0,0-1.921-.443l-1,.548c.64.271,2.889,1.221,4.668,1.967C2024.221,982.387,2023.443,981.455,2023.443,981.455Z" transform="translate(-2013.931 -980.766)" fill="#ed3079"/>
                <path id="Trazado_314" data-name="Trazado 314" d="M2112.351,1067.829c-.121-.132-.262-.289-.418-.465-.229.845-.742,2.738-1.208,4.47.851-.943,1.478-1.641,1.478-1.641A1.457,1.457,0,0,0,2112.351,1067.829Z" transform="translate(-2097.934 -1061.407)" fill="#ed3079"/>
                <path id="Trazado_315" data-name="Trazado 315" d="M1925.533,1073.006c-.349.43-1.587,2.151.085,3.18.68.419,1.984,1.134,3.384,1.883-1.228-1.74-2.7-3.853-3.354-4.868C1925.605,1073.135,1925.568,1073.07,1925.533,1073.006Z" transform="translate(-1924.764 -1066.661)" fill="#34bfc9"/>
                <path id="Trazado_316" data-name="Trazado 316" d="M1975.86,986.409s-1.255-.906-1.98.177l-1.129,1.688,3.286-1.791Z" transform="translate(-1969.451 -985.691)" fill="#34bfc9"/>
                <path id="Trazado_317" data-name="Trazado 317" d="M2091.253,1023.647a1.434,1.434,0,0,0-.886-1.921c-.413-.168-1.145-.474-1.981-.824.918,1.085,2,2.358,2.745,3.2Z" transform="translate(-2077.131 -1018.141)" fill="#34bfc9"/>
                <path id="Trazado_318" data-name="Trazado 318" d="M2062.059,1136.172s1.862,1,2.334-.827c.163-.634.468-1.776.8-3-1.03,1.141-2.387,2.641-3.364,3.707Z" transform="translate(-2052.399 -1121.92)" fill="#34bfc9"/>
                <path id="Trazado_319" data-name="Trazado 319" d="M1946.429,994.27c-1.779-.746-4.029-1.7-4.668-1.967l-3.286,1.791-2.447,3.66s-.033.036-.085.1c.035.064.072.129.115.2.65,1.015,2.126,3.128,3.354,4.868,2.119,1.134,4.458,2.346,5.19,2.725.976-1.065,2.334-2.566,3.364-3.707.465-1.732.979-3.625,1.208-4.47C1948.431,996.628,1947.346,995.355,1946.429,994.27Z" transform="translate(-1935.174 -991.509)" fill="#221049"/>
            </g>
            <g id="Grupo_390" data-name="Grupo 390" transform="translate(994.322 568.695)">
                <path id="Trazado_320" data-name="Trazado 320" d="M1791.633,1283.088l-4.554-5.1a.183.183,0,0,0-.137-.061h-.085a.183.183,0,0,0-.183.183v6.912a.183.183,0,0,0,.183.183h.646a.183.183,0,0,0,.183-.183v-4.912l4.515,5.034a.183.183,0,0,0,.136.061h.089a.183.183,0,0,0,.183-.183v-6.912a.183.183,0,0,0-.183-.183h-.611a.183.183,0,0,0-.183.183Z" transform="translate(-1786.674 -1277.752)" fill="#221049"/>
                <path id="Trazado_321" data-name="Trazado 321" d="M1919.066,1285.207h3.455a.206.206,0,0,0,.206-.206v-.541a.206.206,0,0,0-.206-.206h-2.653v-2.489h2.653a.206.206,0,0,0,.206-.206v-.541a.206.206,0,0,0-.206-.206h-2.653v-1.931h2.682a.206.206,0,0,0,.206-.206v-.541a.206.206,0,0,0-.206-.206h-3.485a.185.185,0,0,0-.185.185v6.909A.185.185,0,0,0,1919.066,1285.207Z" transform="translate(-1909.787 -1277.752)" fill="#221049"/>
                <path id="Trazado_322" data-name="Trazado 322" d="M2013.27,1279.182a3.647,3.647,0,0,0-1.141-2.715,3.882,3.882,0,0,0-2.8-1.1,4,4,0,0,0-1.974.5,3.745,3.745,0,0,0-1.425,1.4,3.807,3.807,0,0,0-.523,1.943,3.608,3.608,0,0,0,1.143,2.679,3.884,3.884,0,0,0,2.8,1.105,3.965,3.965,0,0,0,1.96-.491l.388.479a.162.162,0,0,0,.133.06l.938-.037a.122.122,0,0,0,.086-.2l-.779-.866a3.963,3.963,0,0,0,.88-1.217A3.729,3.729,0,0,0,2013.27,1279.182Zm-1.012-.006a2.785,2.785,0,0,1-.8,2l-.861-1.075a.157.157,0,0,0-.128-.058l-.855.034a.157.157,0,0,0-.113.258l1.184,1.4a3.016,3.016,0,0,1-1.365.314,2.851,2.851,0,0,1-2.051-.823,2.711,2.711,0,0,1-.847-2.016,2.87,2.87,0,0,1,.384-1.467,2.816,2.816,0,0,1,1.069-1.043,2.954,2.954,0,0,1,2.925,0,2.832,2.832,0,0,1,1.076,1.033A2.791,2.791,0,0,1,2012.258,1279.176Z" transform="translate(-1990.365 -1275.364)" fill="#221049"/>
                <path id="Trazado_323" data-name="Trazado 323" d="M2154.815,1282.294a4.775,4.775,0,0,1-.069,1.061,1.535,1.535,0,0,1-.3.584,1.394,1.394,0,0,1-.5.374,1.656,1.656,0,0,1-1.4-.04,1.348,1.348,0,0,1-.55-.423,1.41,1.41,0,0,1-.227-.638,7.914,7.914,0,0,1-.028-.918v-4.168a.2.2,0,0,0-.2-.2h-.59a.2.2,0,0,0-.2.2v4.168a5.571,5.571,0,0,0,.139,1.518,2.1,2.1,0,0,0,.888,1.144,2.828,2.828,0,0,0,1.569.427,2.344,2.344,0,0,0,1.451-.456,2.206,2.206,0,0,0,.8-1.073,5.171,5.171,0,0,0,.2-1.56v-4.168a.2.2,0,0,0-.2-.2h-.59a.2.2,0,0,0-.2.2Z" transform="translate(-2125.716 -1277.752)" fill="#221049"/>
                <path id="Trazado_324" data-name="Trazado 324" d="M2265.979,1278.119v6.893a.2.2,0,0,0,.195.195h.6a.2.2,0,0,0,.195-.195v-6.893a.191.191,0,0,0-.191-.191h-.606A.191.191,0,0,0,2265.979,1278.119Z" transform="translate(-2233.01 -1277.752)" fill="#221049"/>
            </g>
            <g id="Grupo_391" data-name="Grupo 391" transform="translate(1001.868 599.314)">
                <path id="Trazado_325" data-name="Trazado 325" d="M1899.112,1723.072a1.1,1.1,0,0,1-.47.448,1.71,1.71,0,0,1-.807.17h-.663v1.518h-.793v-3.954h1.456a1.76,1.76,0,0,1,.782.159,1.1,1.1,0,0,1,.484.436,1.279,1.279,0,0,1,.011,1.224Zm-.824-.173a.553.553,0,0,0,.159-.422q0-.578-.646-.578h-.629v1.15h.629A.687.687,0,0,0,1898.288,1722.9Z" transform="translate(-1896.379 -1721.202)" fill="#fff"/>
                <path id="Trazado_326" data-name="Trazado 326" d="M1945.578,1724.377H1944l-.26.753h-.833l1.422-3.96h.923l1.422,3.96h-.838Zm-.215-.635-.572-1.654-.572,1.654Z" transform="translate(-1939.71 -1721.126)" fill="#fff"/>
                <path id="Trazado_327" data-name="Trazado 327" d="M2005.565,1721.753a.928.928,0,0,0-.374-.38,1.137,1.137,0,0,0-.555-.13,1.214,1.214,0,0,0-.623.159,1.094,1.094,0,0,0-.425.453,1.6,1.6,0,0,0,0,1.371,1.1,1.1,0,0,0,.433.453,1.279,1.279,0,0,0,.646.159,1.121,1.121,0,0,0,.742-.241,1.148,1.148,0,0,0,.38-.671h-1.359v-.606h2.141v.691a1.859,1.859,0,0,1-.34.765,1.919,1.919,0,0,1-.671.563,1.975,1.975,0,0,1-.921.213,2.084,2.084,0,0,1-1.034-.258,1.877,1.877,0,0,1-.725-.717,2.2,2.2,0,0,1,0-2.087,1.87,1.87,0,0,1,.725-.719,2.208,2.208,0,0,1,2.19.068,1.664,1.664,0,0,1,.68.915Z" transform="translate(-1995.311 -1720.512)" fill="#fff"/>
                <path id="Trazado_328" data-name="Trazado 328" d="M2067.8,1724.377h-1.575l-.26.753h-.833l1.422-3.96h.923l1.422,3.96h-.839Zm-.215-.635-.572-1.654-.572,1.654Z" transform="translate(-2053.521 -1721.126)" fill="#fff"/>
                <path id="Trazado_329" data-name="Trazado 329" d="M2129.677,1725.207l-.872-1.541h-.374v1.541h-.793v-3.954h1.484a1.732,1.732,0,0,1,.782.161,1.129,1.129,0,0,1,.484.436,1.193,1.193,0,0,1,.161.615,1.177,1.177,0,0,1-.227.705,1.163,1.163,0,0,1-.674.433l.946,1.6Zm-1.246-2.136h.663a.662.662,0,0,0,.481-.156.58.58,0,0,0,.158-.433.554.554,0,0,0-.158-.422.679.679,0,0,0-.481-.15h-.663Z" transform="translate(-2111.731 -1721.202)" fill="#fff"/>
            </g>
        </g>
    </g>
</svg>
