<svg xmlns="http://www.w3.org/2000/svg" width="251.309" height="188.057" viewBox="0 0 251.309 188.057">
    <g id="Grupo_639" data-name="Grupo 639" transform="translate(-26.859 -81.187)">
        <g id="Grupo_579" data-name="Grupo 579" transform="translate(30.433 83.254)">
            <path id="Trazado_791" data-name="Trazado 791" d="M256.947,279.421c26.743-20.334,38.653-76.72-4.77-104.369-28.747-18.3-46.626-7.861-78.966-19.968-39.48-14.776-45.365-59.42-93.388-37.453-25.442,11.634-43.079,44.425-46.182,81.692C30.6,235.819,43.536,260.861,69.968,278,132.041,280.637,194.238,280.159,256.947,279.421Z" transform="translate(-33.205 -96.568)" fill="#dff3fc"/>
            <path id="Trazado_792" data-name="Trazado 792" d="M234.915,107.328c-4.039,16.218,10.961,32.272,26.763,38.929s33.924,5.868,50.854,2.692c7.3-1.368,14.813-3.294,20.489-7.951s8.965-12.743,5.855-19.276c-2.745-5.761-9.427-8.711-15.8-10.226s-13.136-2.134-18.811-5.321c-5.381-3.024-9.2-8.03-13.879-11.994-8.647-7.315-20.794-10.941-32.036-8.627S238.348,93.542,234.915,107.328Z" transform="translate(-121.037 -84.858)" fill="#dff3fc"/>
        </g>
        <g id="Grupo_634" data-name="Grupo 634" transform="translate(26.859 81.187)">
            <g id="Grupo_595" data-name="Grupo 595" transform="translate(16.616)">
                <g id="Grupo_580" data-name="Grupo 580" transform="translate(144.475 64.996)">
                    <path id="Trazado_793" data-name="Trazado 793" d="M406.848,230.743V218.475H402.2a23.8,23.8,0,0,0-2.5-6.031l3.289-3.295-8.676-8.677-3.295,3.29a23.809,23.809,0,0,0-6.031-2.5v-4.652H372.712v4.652a23.806,23.806,0,0,0-6.03,2.5l-3.295-3.29-8.677,8.677,3.29,3.295a23.987,23.987,0,0,0-2.5,6.031h-4.652v12.269H355.5a23.988,23.988,0,0,0,2.5,6.031l-3.29,3.295,8.677,8.676,3.295-3.289a23.992,23.992,0,0,0,6.03,2.5v4.652h12.269v-4.652a24,24,0,0,0,6.031-2.5l3.295,3.289,8.676-8.676-3.289-3.295a23.8,23.8,0,0,0,2.5-6.031Zm-28,4.5a10.63,10.63,0,1,1,10.627-10.633A10.633,10.633,0,0,1,378.85,235.239Z" transform="translate(-329.494 -196.608)" fill="#a2c7eb"/>
                    <path id="Trazado_794" data-name="Trazado 794" d="M361.1,301.911l-2.334-6.085-2.308.885a12.637,12.637,0,0,0-2.388-2.515l1-2.26-5.953-2.652-1.008,2.258a12.649,12.649,0,0,0-3.467-.093l-.885-2.307-6.085,2.334.885,2.307a12.642,12.642,0,0,0-2.515,2.388l-2.26-1-2.652,5.953,2.259,1.009a12.731,12.731,0,0,0-.093,3.467l-2.307.885,2.334,6.085,2.307-.885a12.754,12.754,0,0,0,2.388,2.515l-1,2.26,5.954,2.652,1.008-2.258a12.756,12.756,0,0,0,3.467.093l.885,2.307,6.084-2.334-.885-2.307a12.752,12.752,0,0,0,2.515-2.388l2.26,1,2.652-5.953-2.258-1.009a12.643,12.643,0,0,0,.094-3.467Zm-13.029,7.557a5.647,5.647,0,1,1,3.247-7.3A5.649,5.649,0,0,1,348.068,309.468Z" transform="translate(-320.819 -237.035)" fill="none" stroke="#a2c7eb" stroke-miterlimit="10" stroke-width="1"/>
                    <path id="Trazado_795" data-name="Trazado 795" d="M333.271,267.223l-1.577-4.111-1.559.6a8.556,8.556,0,0,0-1.614-1.7l.679-1.527-4.023-1.792-.681,1.526a8.548,8.548,0,0,0-2.343-.063l-.6-1.559-4.111,1.577.6,1.559a8.539,8.539,0,0,0-1.7,1.613l-1.527-.679-1.792,4.023,1.526.681a8.615,8.615,0,0,0-.063,2.343l-1.559.6,1.577,4.111,1.559-.6a8.6,8.6,0,0,0,1.613,1.7L317,277.05l4.023,1.792.681-1.525a8.613,8.613,0,0,0,2.343.063l.6,1.559,4.111-1.577-.6-1.559a8.6,8.6,0,0,0,1.7-1.614l1.527.679,1.792-4.023-1.525-.681a8.547,8.547,0,0,0,.063-2.343Zm-8.8,5.106a3.815,3.815,0,1,1,2.194-4.929A3.817,3.817,0,0,1,324.467,272.328Z" transform="translate(-312.928 -223.689)" fill="none" stroke="#a2c7eb" stroke-miterlimit="10" stroke-width="1"/>
                </g>
                <g id="Grupo_582" data-name="Grupo 582" transform="translate(124.614 17.161)">
                    <path id="Trazado_796" data-name="Trazado 796" d="M316.431,131.048a19.386,19.386,0,1,1-19.386-19.386A19.366,19.366,0,0,1,316.431,131.048Z" transform="translate(-277.659 -111.662)" fill="#0097d8" stroke="#0097d8" stroke-miterlimit="10" stroke-width="1"/>
                    <g id="Grupo_581" data-name="Grupo 581" transform="translate(7.364 5.93)">
                        <circle id="Elipse_83" data-name="Elipse 83" cx="6.346" cy="6.346" r="6.346" transform="translate(4.946 1.555) rotate(-7.037)" fill="#fff"/>
                        <path id="Trazado_797" data-name="Trazado 797" d="M314.78,157.888a19.4,19.4,0,0,1-24.043,0c1.24-5.455,2.381-10.164,3.569-11.358,1.677-1.676,6.13-2.655,8.447-2.655s6.98,1.188,7.841,2.049C312.352,147.677,313.866,152.514,314.78,157.888Z" transform="translate(-290.737 -131.665)" fill="#fff"/>
                    </g>
                </g>
                <g id="Grupo_585" data-name="Grupo 585" transform="translate(114.282 70.032)">
                    <g id="Grupo_583" data-name="Grupo 583">
                        <path id="Trazado_798" data-name="Trazado 798" d="M262.61,219.855v-9.573a4.73,4.73,0,0,1,4.73-4.73H297.5a4.73,4.73,0,0,1,4.73,4.73v9.573a4.73,4.73,0,0,1-4.73,4.73H267.346A4.731,4.731,0,0,1,262.61,219.855Z" transform="translate(-260.752 -205.552)" fill="#0097d8"/>
                        <path id="Trazado_799" data-name="Trazado 799" d="M273.906,230.062l-14.6,14.219,23.657-11.955" transform="translate(-259.31 -216.26)" fill="#0097d8"/>
                    </g>
                    <g id="Grupo_584" data-name="Grupo 584" transform="translate(5.518 3.739)">
                        <path id="Trazado_800" data-name="Trazado 800" d="M269.11,212.947V212.9a.7.7,0,0,1,.7-.7h14.911a.7.7,0,0,1,.7.7v.051a.7.7,0,0,1-.7.7H269.814A.7.7,0,0,1,269.11,212.947Z" transform="translate(-269.11 -212.192)" fill="#fff"/>
                        <path id="Trazado_801" data-name="Trazado 801" d="M299.28,212.947V212.9a.7.7,0,0,1,.7-.7H313a.7.7,0,0,1,.7.7v.051a.7.7,0,0,1-.7.7H299.984A.7.7,0,0,1,299.28,212.947Z" transform="translate(-282.291 -212.192)" fill="#fff"/>
                        <path id="Trazado_802" data-name="Trazado 802" d="M289.19,218.637v-.051a.7.7,0,0,1,.7-.7h18.7a.7.7,0,0,1,.7.7v.051a.7.7,0,0,1-.7.7h-18.7A.7.7,0,0,1,289.19,218.637Z" transform="translate(-277.883 -214.678)" fill="#fff"/>
                        <path id="Trazado_803" data-name="Trazado 803" d="M269.11,218.637v-.051a.7.7,0,0,1,.7-.7h8.351a.7.7,0,0,1,.7.7v.051a.7.7,0,0,1-.7.7h-8.351A.7.7,0,0,1,269.11,218.637Z" transform="translate(-269.11 -214.678)" fill="#fff"/>
                        <path id="Trazado_804" data-name="Trazado 804" d="M293.8,224.327v-.051a.7.7,0,0,1,.7-.7h16.1a.7.7,0,0,1,.7.7v.051a.7.7,0,0,1-.7.7H294.5A.7.7,0,0,1,293.8,224.327Z" transform="translate(-279.897 -217.164)" fill="#fff"/>
                        <path id="Trazado_805" data-name="Trazado 805" d="M269.11,224.327v-.051a.7.7,0,0,1,.7-.7h11.122a.7.7,0,0,1,.7.7v.051a.7.7,0,0,1-.7.7H269.814A.7.7,0,0,1,269.11,224.327Z" transform="translate(-269.11 -217.164)" fill="#fff"/>
                        <path id="Trazado_806" data-name="Trazado 806" d="M269.11,230.017v-.051a.7.7,0,0,1,.7-.7h4.128a.7.7,0,0,1,.7.7v.051a.7.7,0,0,1-.7.7h-4.128A.7.7,0,0,1,269.11,230.017Z" transform="translate(-269.11 -219.65)" fill="#fff"/>
                        <path id="Trazado_807" data-name="Trazado 807" d="M281.53,230.017v-.051a.7.7,0,0,1,.7-.7h23.009a.7.7,0,0,1,.7.7v.051a.7.7,0,0,1-.7.7H282.234A.7.7,0,0,1,281.53,230.017Z" transform="translate(-274.536 -219.65)" fill="#fff"/>
                    </g>
                </g>
                <g id="Grupo_590" data-name="Grupo 590" transform="translate(0 38.138)">
                    <g id="Grupo_589" data-name="Grupo 589">
                        <circle id="Elipse_84" data-name="Elipse 84" cx="18.651" cy="18.651" r="18.651" transform="translate(0 33.819) rotate(-65.047)" fill="#0097d8"/>
                        <g id="Grupo_588" data-name="Grupo 588" transform="translate(14.621 9.847)">
                            <g id="Grupo_586" data-name="Grupo 586" transform="translate(0 18.323)">
                                <circle id="Elipse_85" data-name="Elipse 85" cx="4.52" cy="4.52" r="4.52" transform="translate(0 2.995) rotate(-19.353)" fill="#fff"/>
                                <path id="Trazado_808" data-name="Trazado 808" d="M88.18,208.569l-.218-2.866,2.373-1.622,2.591,1.244.218,2.866-2.373,1.622Z" transform="translate(-84.791 -201.185)" fill="#0097d8"/>
                            </g>
                            <g id="Grupo_587" data-name="Grupo 587" transform="translate(8.775 0)">
                                <circle id="Elipse_86" data-name="Elipse 86" cx="4.52" cy="4.52" r="4.52" transform="translate(0 3.043) rotate(-19.671)" fill="#fff"/>
                                <path id="Trazado_809" data-name="Trazado 809" d="M104.192,174.364l.155-3.645,2.747-2.4,2.591,1.244-.155,3.645-2.747,2.4Z" transform="translate(-100.656 -167.239)" fill="#0097d8"/>
                            </g>
                            <path id="Trazado_810" data-name="Trazado 810" d="M95.44,194.339l-3.458-1.66,2.555-5.894q.243-.561.529-1.1l3-5.68,3.458,1.66-2.464,5.8q-.286.674-.633,1.319Z" transform="translate(-86.547 -172.343)" fill="#fff"/>
                        </g>
                    </g>
                    <path id="Trazado_811" data-name="Trazado 811" d="M123.374,205.379c.667-.309,11.367.179,11.367.179l-7.714-7.082Z" transform="translate(-85.641 -170.567)" fill="#0097d8"/>
                </g>
                <g id="Grupo_594" data-name="Grupo 594" transform="translate(44.033)">
                    <g id="Grupo_592" data-name="Grupo 592">
                        <g id="Grupo_591" data-name="Grupo 591">
                            <circle id="Elipse_87" data-name="Elipse 87" cx="18.331" cy="18.331" r="18.331" transform="translate(0 33.649) rotate(-66.607)" fill="#0097d8"/>
                        </g>
                    </g>
                    <g id="Grupo_593" data-name="Grupo 593" transform="translate(10.575 8.481)">
                        <rect id="Rectángulo_542" data-name="Rectángulo 542" width="1.225" height="15.395" transform="translate(12.915)" fill="#fff"/>
                        <rect id="Rectángulo_543" data-name="Rectángulo 543" width="1.225" height="15.604" transform="matrix(-0.569, -0.822, 0.822, -0.569, 0.697, 25.283)" fill="#fff"/>
                        <path id="Trazado_812" data-name="Trazado 812" d="M177.741,122.679a1.687,1.687,0,1,1-1.687-1.687A1.687,1.687,0,0,1,177.741,122.679Z" transform="translate(-162.527 -107.058)" fill="#fff"/>
                    </g>
                </g>
            </g>
            <g id="Grupo_633" data-name="Grupo 633" transform="translate(0 50.872)">
                <g id="Grupo_610" data-name="Grupo 610" transform="translate(0 42.866)">
                    <g id="Grupo_601" data-name="Grupo 601" transform="translate(107.5 10.464)">
                        <g id="Grupo_596" data-name="Grupo 596" transform="translate(14.253)">
                            <path id="Trazado_813" data-name="Trazado 813" d="M265.658,310.257c-1.087-16.758,6.245-34.1,18.594-44.025C284.635,283.075,277.376,300.121,265.658,310.257Z" transform="translate(-252.892 -266.232)" fill="#a2c7eb"/>
                            <path id="Trazado_814" data-name="Trazado 814" d="M272.414,274.242a222.288,222.288,0,0,0-13.442,30.313c-4.544,12.71-8.12,26.213-15.9,36.868" transform="translate(-243.07 -269.731)" fill="none" stroke="#6f8bbf" stroke-linecap="round" stroke-miterlimit="10" stroke-width="1"/>
                        </g>
                        <g id="Grupo_597" data-name="Grupo 597" transform="translate(23.122 27.03)">
                            <path id="Trazado_815" data-name="Trazado 815" d="M258.82,341.769c6.251-13.982,18.656-24.546,32.334-27.537C285.332,329.217,272.234,340.648,258.82,341.769Z" transform="translate(-258.82 -314.232)" fill="#a2c7eb"/>
                            <path id="Trazado_816" data-name="Trazado 816" d="M288.17,319.7q-14.013,12.332-28.5,23.966" transform="translate(-259.191 -316.622)" fill="none" stroke="#6f8bbf" stroke-linecap="round" stroke-miterlimit="10" stroke-width="1"/>
                        </g>
                        <g id="Grupo_598" data-name="Grupo 598" transform="translate(17.952 50.355)">
                            <path id="Trazado_817" data-name="Trazado 817" d="M252.27,372.045c8.351-12.473,23.758-18.983,36.507-15.424C279.4,368.937,263.96,375.463,252.27,372.045Z" transform="translate(-250.789 -355.654)" fill="#a2c7eb"/>
                            <path id="Trazado_818" data-name="Trazado 818" d="M284.57,358.972a121.554,121.554,0,0,1-34.93,14.945" transform="translate(-249.64 -357.104)" fill="none" stroke="#6f8bbf" stroke-linecap="round" stroke-miterlimit="10" stroke-width="1"/>
                        </g>
                        <g id="Grupo_599" data-name="Grupo 599" transform="translate(12.289 10.271)">
                            <path id="Trazado_819" data-name="Trazado 819" d="M251.238,324.527c2.669-14.044-1.335-29.7-10.249-40.055C237.334,298.274,240.82,314.447,251.238,324.527Z" transform="translate(-239.582 -284.472)" fill="#a2c7eb"/>
                            <path id="Trazado_820" data-name="Trazado 820" d="M243.71,290.832a152.031,152.031,0,0,0,9.725,37.262" transform="translate(-241.386 -287.251)" fill="none" stroke="#6f8bbf" stroke-linecap="round" stroke-miterlimit="10" stroke-width="1"/>
                        </g>
                        <g id="Grupo_600" data-name="Grupo 600" transform="translate(0 26.805)">
                            <path id="Trazado_821" data-name="Trazado 821" d="M237.12,349.314c-1.138-14.438-8.537-28-19.36-35.482a61.7,61.7,0,0,0,5.885,21.72C227.356,343.249,232.807,348.132,237.12,349.314Z" transform="translate(-217.76 -313.832)" fill="#a2c7eb"/>
                            <path id="Trazado_822" data-name="Trazado 822" d="M220.61,319.022a114.7,114.7,0,0,0,18.025,32.864" transform="translate(-219.005 -316.099)" fill="none" stroke="#6f8bbf" stroke-linecap="round" stroke-miterlimit="10" stroke-width="1"/>
                        </g>
                    </g>
                    <g id="Grupo_607" data-name="Grupo 607" transform="translate(187.818 33.783)">
                        <g id="Grupo_602" data-name="Grupo 602" transform="translate(0 3.874)">
                            <path id="Trazado_823" data-name="Trazado 823" d="M400.57,346.153c5.907-15.368,19.5-27.835,34.48-31.63C428.484,329.681,415.082,341.9,400.57,346.153Z" transform="translate(-377.944 -314.522)" fill="#a2c7eb"/>
                            <path id="Trazado_824" data-name="Trazado 824" d="M413.864,320.192a218.337,218.337,0,0,0-24.3,21.517c-9.224,9.472-17.924,20.036-29.17,26.354" transform="translate(-360.39 -316.999)" fill="none" stroke="#6f8bbf" stroke-linecap="round" stroke-miterlimit="10" stroke-width="1"/>
                        </g>
                        <g id="Grupo_603" data-name="Grupo 603" transform="translate(14.861 31.076)">
                            <path id="Trazado_825" data-name="Trazado 825" d="M386.78,375.055c11.257-9.905,26.551-14.253,39.863-11.336C415.358,374.695,399.1,379.532,386.78,375.055Z" transform="translate(-386.78 -362.827)" fill="#a2c7eb"/>
                            <path id="Trazado_826" data-name="Trazado 826" d="M422.895,366.862q-17.443,5.271-35.015,9.719" transform="translate(-387.261 -364.59)" fill="none" stroke="#6f8bbf" stroke-linecap="round" stroke-miterlimit="10" stroke-width="1"/>
                        </g>
                        <g id="Grupo_604" data-name="Grupo 604" transform="translate(5.13 47.187)">
                            <path id="Trazado_827" data-name="Trazado 827" d="M372.12,396.9c12.5-7.7,28.781-7.214,38.591,1.16C397.376,405.2,381.051,404.713,372.12,396.9Z" transform="translate(-370.645 -391.438)" fill="#a2c7eb"/>
                            <path id="Trazado_828" data-name="Trazado 828" d="M406.5,401.672a117.731,117.731,0,0,1-37-.94" transform="translate(-369.5 -395.498)" fill="none" stroke="#6f8bbf" stroke-linecap="round" stroke-miterlimit="10" stroke-width="1"/>
                        </g>
                        <g id="Grupo_605" data-name="Grupo 605" transform="translate(14.993)">
                            <path id="Trazado_829" data-name="Trazado 829" d="M389.349,347.505c8.115-11.42,10.992-27,7.36-39.863C387.817,318.443,384.269,334.272,389.349,347.505Z" transform="translate(-387.014 -307.642)" fill="#a2c7eb"/>
                            <path id="Trazado_830" data-name="Trazado 830" d="M397.883,313.962a149.728,149.728,0,0,0-6.673,37.166" transform="translate(-388.847 -310.403)" fill="none" stroke="#6f8bbf" stroke-linecap="round" stroke-miterlimit="10" stroke-width="1"/>
                        </g>
                        <g id="Grupo_606" data-name="Grupo 606" transform="translate(2.1 9.139)">
                            <path id="Trazado_831" data-name="Trazado 831" d="M370.393,363.381c4.91-13.323,3.931-28.426-2.568-39.509a60.917,60.917,0,0,0-3.7,21.748C364.243,353.988,367.059,360.565,370.393,363.381Z" transform="translate(-364.119 -323.872)" fill="#a2c7eb"/>
                            <path id="Trazado_832" data-name="Trazado 832" d="M370.682,329.652a112.927,112.927,0,0,0,2.461,36.631" transform="translate(-366.762 -326.397)" fill="none" stroke="#6f8bbf" stroke-linecap="round" stroke-miterlimit="10" stroke-width="1"/>
                        </g>
                    </g>
                    <g id="Grupo_609" data-name="Grupo 609">
                        <path id="Trazado_833" data-name="Trazado 833" d="M70.39,293.865c-6.022-18.419-22.827-33.3-42.377-37.526C36.232,272.274,51.14,284.956,70.39,293.865Z" transform="translate(-27.364 -251.446)" fill="#a2c7eb"/>
                        <path id="Trazado_834" data-name="Trazado 834" d="M70.906,322.591A55.706,55.706,0,0,0,26.86,318.2,62.2,62.2,0,0,0,70.906,322.591Z" transform="translate(-26.86 -277.315)" fill="#a2c7eb"/>
                        <path id="Trazado_835" data-name="Trazado 835" d="M79.932,334.727a58.274,58.274,0,0,0-40.764,9.594C52.3,349.093,68.048,346,79.932,334.727Z" transform="translate(-32.237 -285.457)" fill="#a2c7eb"/>
                        <path id="Trazado_836" data-name="Trazado 836" d="M91.291,350.64c-14.118-.059-28,6.651-36.3,17.545a31.034,31.034,0,0,0,18.72-2.1C79.477,363.47,84.307,359.016,91.291,350.64Z" transform="translate(-39.151 -292.644)" fill="#a2c7eb"/>
                        <path id="Trazado_837" data-name="Trazado 837" d="M107.031,376.063c-13.921-2.387-28.754,1.927-38.792,11.283a31.171,31.171,0,0,0,18.83,1.023C93.2,386.753,98.718,383.163,107.031,376.063Z" transform="translate(-44.938 -303.468)" fill="#a2c7eb"/>
                        <path id="Trazado_838" data-name="Trazado 838" d="M103.333,290.942a46.691,46.691,0,0,1-6.465-43.292c3.988,6.754,7.429,13.894,9.035,21.484S107.2,284.816,103.333,290.942Z" transform="translate(-56.269 -247.65)" fill="#a2c7eb"/>
                        <path id="Trazado_839" data-name="Trazado 839" d="M119.991,317.323a42.7,42.7,0,0,1,11.831-36.65C132.917,294.292,128.749,308.166,119.991,317.323Z" transform="translate(-67.311 -262.077)" fill="#a2c7eb"/>
                        <g id="Grupo_608" data-name="Grupo 608" transform="translate(4.929 6.532)">
                            <path id="Trazado_840" data-name="Trazado 840" d="M35.613,262.2c27.978,17.9,49.859,44.583,61.409,74.9" transform="translate(-35.613 -260.539)" fill="none" stroke="#6f8bbf" stroke-linecap="round" stroke-miterlimit="10" stroke-width="1"/>
                            <path id="Trazado_841" data-name="Trazado 841" d="M100.5,259.25a221.987,221.987,0,0,1,6.174,42.076" transform="translate(-63.961 -259.25)" fill="none" stroke="#6f8bbf" stroke-linecap="round" stroke-miterlimit="10" stroke-width="1"/>
                            <path id="Trazado_842" data-name="Trazado 842" d="M129.9,290.165a81.974,81.974,0,0,1-10.064,31.86" transform="translate(-72.408 -272.756)" fill="none" stroke="#6f8bbf" stroke-linecap="round" stroke-miterlimit="10" stroke-width="1"/>
                            <path id="Trazado_843" data-name="Trazado 843" d="M37.318,320.829a226.39,226.39,0,0,0,38.9,3.955" transform="translate(-36.358 -286.153)" fill="none" stroke="#6f8bbf" stroke-linecap="round" stroke-miterlimit="10" stroke-width="1"/>
                            <path id="Trazado_844" data-name="Trazado 844" d="M51.044,343.7a104.445,104.445,0,0,0,34.219-8.431" transform="translate(-42.354 -292.459)" fill="none" stroke="#6f8bbf" stroke-linecap="round" stroke-miterlimit="10" stroke-width="1"/>
                            <path id="Trazado_845" data-name="Trazado 845" d="M63.627,365.591Q80,357.425,96.369,349.253" transform="translate(-47.852 -298.57)" fill="none" stroke="#6f8bbf" stroke-linecap="round" stroke-miterlimit="10" stroke-width="1"/>
                            <path id="Trazado_846" data-name="Trazado 846" d="M76.232,387.137c14.249-2.749,18.482-6.03,34.3-10.57" transform="translate(-53.359 -310.503)" fill="none" stroke="#6f8bbf" stroke-linecap="round" stroke-miterlimit="10" stroke-width="1"/>
                        </g>
                    </g>
                </g>
                <g id="Grupo_632" data-name="Grupo 632" transform="translate(43.486)">
                    <g id="Grupo_611" data-name="Grupo 611" transform="translate(55.669 63.253)">
                        <path id="Trazado_847" data-name="Trazado 847" d="M223.991,348.992s1.233,11.3,2.613,12.208c2.466,1.627,31.017,5.389,31.017,5.389l-.935,7.428s-39.1,3.514-40.764,1.56c-2.883-3.39-7.951-19.743-7.951-19.743Z" transform="translate(-205.137 -312.31)" fill="#e06a58"/>
                        <path id="Trazado_848" data-name="Trazado 848" d="M202.94,291.437l3.159-7.585s8.571,4.026,11.4,9c3.024,5.316,6.724,33.579,6.724,33.579s-15.131,3.486-17.913,2S202.94,291.437,202.94,291.437Z" transform="translate(-202.94 -283.852)" fill="#f2ae30"/>
                    </g>
                    <path id="Trazado_849" data-name="Trazado 849" d="M135.689,233.74a16.729,16.729,0,0,0-6.926-1.34c-2.371.18-4.792,1.436-5.6,3.52-.574,1.475-.31,3.215-1.216,4.544a5.437,5.437,0,0,1-4.2,1.909c-1.616.113-3.244-.1-4.848.107-4.955.659-8.492,6.042-6.864,10.452.648,1.757,1.977,3.435,1.672,5.265-.321,1.96-2.376,3.249-3.221,5.068-1.121,2.421.22,5.355,2.433,7.005s5.091,2.269,7.884,2.686a32.737,32.737,0,0,0,11.617.034c3.8-.811,7.433-2.816,9.4-5.947a48.593,48.593,0,0,1,2.416-4.252c2.095-2.686,5.806-3.728,8.728-5.631,3.193-2.089,5.535-6.155,3.655-9.337-1.813-3.058-6.532-3.739-8.424-6.752a21.15,21.15,0,0,1-1.475-4.083C140.2,235.627,138.961,234.94,135.689,233.74Z" transform="translate(-104.083 -198.109)" fill="#0a2240"/>
                    <g id="Grupo_612" data-name="Grupo 612" transform="translate(27.372 39.59)">
                        <path id="Trazado_850" data-name="Trazado 850" d="M169.82,275.383a3.322,3.322,0,0,0,2.129,1.408,3.191,3.191,0,0,0,2.388-1.273,24.237,24.237,0,0,0,6.166-11.826c-.794-.45-1.56-.884-2.252-1.29a3.42,3.42,0,0,1-1.4-1.543,2.964,2.964,0,0,1-.208-1.453,41.526,41.526,0,0,1,2.337-10.891c-7.062-1.594-13.723-3.486-17.552-6.684-.467,1.971-1.019,5.828-2.2,9.652-1.256,4.049-3.215,8.053-6.538,9.776A70.061,70.061,0,0,1,169.82,275.383Z" transform="translate(-152.69 -241.832)" fill="#f9a07b"/>
                        <path id="Trazado_851" data-name="Trazado 851" d="M181.712,259.417a2.955,2.955,0,0,0,.208,1.453c-4.178,5.068-13.521-1.554-17.62-9.376,1.177-3.824,1.729-7.681,2.2-9.652,3.824,3.2,10.491,5.1,17.552,6.684A41.478,41.478,0,0,0,181.712,259.417Z" transform="translate(-157.762 -241.836)" fill="#e06a58"/>
                    </g>
                    <g id="Grupo_613" data-name="Grupo 613" transform="translate(10.422 56.895)">
                        <path id="Trazado_852" data-name="Trazado 852" d="M175.124,334.105c-.924,6.116,5.676,12.7,5.84,15.965-14.016,0-43.377.856-58.328-1.177-.681-3.773,6.7-12.259,6.7-20.638,0-1.109-.045-2.326-.135-3.632-.237-3.739-.788-8.188-1.4-12.749-1.667-12.237-3.886-25.324-2.247-28.038,3.21-5.288,10.716-8.88,14.438-10.423,1.278-.529,2.112-.816,2.174-.85,4.668,7.962,14.168,14.754,17.755,14.45,1-.079,3.953-1.109,5.907-10.947.76.434,1.52.833,2.275,1.222,3.711,1.931,7.191,3.525,8.193,6.008,2.647,6.538,5.243,23.02,4.668,28.883-.58,5.913-2.956,10.428-4.623,16.364-.389,1.391-.743,2.866-1.031,4.454C175.237,333.351,175.18,333.723,175.124,334.105Z" transform="translate(-122.591 -272.562)" fill="#ffc73c"/>
                        <path id="Trazado_853" data-name="Trazado 853" d="M180.964,375.755c-14.016,0-43.377.856-58.328-1.177-.681-3.773,6.7-12.259,6.7-20.638,0-1.109-.045-2.326-.135-3.632-.237-3.739-.788-8.188-1.4-12.749,2.652,2.8,6.521-9.027,8.233-5.564,9.263,18.7,16.567,23.612,29.26,23.612a48.731,48.731,0,0,0,11.048-1.38c-.389,1.391-.743,2.866-1.031,4.454q-.1.541-.186,1.115C174.2,365.9,180.8,372.483,180.964,375.755Z" transform="translate(-122.591 -298.247)" fill="#fb3"/>
                        <path id="Trazado_854" data-name="Trazado 854" d="M181.6,277.287c-.6,4.375-2.388,10.271-7.58,11.826-7.016,2.1-17.17-11.009-20.531-15.7,1.278-.529,2.112-.816,2.174-.85,4.668,7.962,14.168,14.754,17.755,14.45,1-.079,3.953-1.109,5.907-10.947C180.086,276.493,180.846,276.892,181.6,277.287Z" transform="translate(-136.09 -272.562)" fill="#fce172"/>
                    </g>
                    <g id="Grupo_617" data-name="Grupo 617" transform="translate(58.766 81.875)">
                        <g id="Grupo_616" data-name="Grupo 616">
                            <g id="Grupo_614" data-name="Grupo 614" transform="translate(0 45.81)">
                                <path id="Trazado_855" data-name="Trazado 855" d="M208.491,398.408l-.051,4.882,87.284.518.18-5.535Z" transform="translate(-208.44 -398.272)" fill="#325f73"/>
                            </g>
                            <g id="Grupo_615" data-name="Grupo 615" transform="translate(27.7)">
                                <path id="Trazado_856" data-name="Trazado 856" d="M355.045,319.31l-1.943-1.971-63.576-.417-31.9,46.125,1.667,1.34Z" transform="translate(-257.63 -316.922)" fill="#325f73"/>
                                <path id="Trazado_857" data-name="Trazado 857" d="M292.046,319.952,260.59,365.712l60.085.3,35.662-45.376Z" transform="translate(-258.923 -318.246)" fill="#0b2d50"/>
                            </g>
                        </g>
                        <ellipse id="Elipse_88" data-name="Elipse 88" cx="6.994" cy="3.497" rx="6.994" ry="3.497" transform="translate(69.01 23.921)" fill="#3c738c"/>
                    </g>
                    <g id="Grupo_626" data-name="Grupo 626" transform="translate(24.494)">
                        <g id="Grupo_618" data-name="Grupo 618" transform="translate(33.82 28.782)">
                            <ellipse id="Elipse_89" data-name="Elipse 89" cx="9.793" cy="6.459" rx="9.793" ry="6.459" transform="translate(0 19.254) rotate(-79.444)" fill="#56c4f9"/>
                        </g>
                        <path id="Trazado_858" data-name="Trazado 858" d="M222.368,199.313c-.653,4.629-2.72,9.731-5.733,15.368-1.059-4.618-1.734-10.243-2.669-15.869-.952-5.637-2.162-11.274-4.263-15.88a27.572,27.572,0,0,0-1.543-2.894,10.275,10.275,0,0,1,3.705.332,12.414,12.414,0,0,1,5.068,2.765,17.77,17.77,0,0,1,4.939,8.07A18.109,18.109,0,0,1,222.368,199.313Z" transform="translate(-174.045 -175.225)" fill="#0b2d50"/>
                        <g id="Grupo_619" data-name="Grupo 619" transform="translate(5.012 2.479)">
                            <path id="Trazado_859" data-name="Trazado 859" d="M196.253,202.324c-.034.912-.1,1.841-.18,2.765-1.284,14.979-7.574,25.256-17.2,25.256-13.588,0-22.4-15.238-22.4-30.166,0-14.726,9.021-25.385,19.58-24.152,6.087.7,10.536,2.72,13.7,5.682a18.666,18.666,0,0,1,4.629,7.062,30.874,30.874,0,0,1,1.864,10.17c0,.011.011.023.011.034C196.3,200.066,196.293,201.181,196.253,202.324Z" transform="translate(-156.48 -175.93)" fill="#f9a07b"/>
                            <path id="Trazado_860" data-name="Trazado 860" d="M201.081,210.775a15.054,15.054,0,0,0-1.83-4.128,42.76,42.76,0,0,1-26.619,4.274c-1.723,1.436-3.407,2.849-5.1,4.263.034-6.814.13-11.426,2.787-14.726,2.495-3.1,6.656-4.263,10.6-4.77a49.021,49.021,0,0,1,13.374.084,13.534,13.534,0,0,1,4.927,1.458,30.874,30.874,0,0,1,1.864,10.17c0,.011.011.023.011.034C201.131,208.516,201.12,209.631,201.081,210.775Z" transform="translate(-161.308 -184.38)" fill="#e06a58"/>
                        </g>
                        <path id="Trazado_861" data-name="Trazado 861" d="M195.088,191.181a25.1,25.1,0,0,1-6.825,3.942c-7.467,3.013-17.17,4.009-24.732,3.643-3.717,8.165-5.22,11.093-6.172,18.217-3.632-3.407-6.589-9.646-7.467-14.551a33.281,33.281,0,0,1,.58-14.821,22.167,22.167,0,0,1,11.307-13.6,21.254,21.254,0,0,1,2.433-1.126,23.3,23.3,0,0,1,15.109-.18,17.994,17.994,0,0,1,6.836,3.976c3.835,3.463,6.206,8.154,7.737,11.668C194.378,189.425,194.767,190.4,195.088,191.181Z" transform="translate(-148.342 -171.531)" fill="#0b2d50"/>
                        <path id="Trazado_862" data-name="Trazado 862" d="M206.334,195.614a22.927,22.927,0,0,0-1.425-4.758,16.4,16.4,0,0,0-1.34-2.517,13.8,13.8,0,0,0-7.191-5.862,26.464,26.464,0,0,0-2.7-3.238,20.859,20.859,0,0,0-11.64-6.138,22.113,22.113,0,0,0-10.575.9,21.253,21.253,0,0,1,2.433-1.126A23.3,23.3,0,0,1,189,172.7a17.994,17.994,0,0,1,6.836,3.976,12.414,12.414,0,0,1,5.068,2.765,17.77,17.77,0,0,1,4.939,8.07A18.192,18.192,0,0,1,206.334,195.614Z" transform="translate(-158.012 -171.527)" fill="#225570"/>
                        <g id="Grupo_622" data-name="Grupo 622" transform="translate(19.518 31.795)">
                            <g id="Grupo_620" data-name="Grupo 620">
                                <path id="Trazado_863" data-name="Trazado 863" d="M182.24,229.466a9.532,9.532,0,0,1,8.773-.749" transform="translate(-182.24 -227.989)" fill="none" stroke="#0b2d50" stroke-linecap="round" stroke-miterlimit="10" stroke-width="2"/>
                                <path id="Trazado_864" data-name="Trazado 864" d="M212.78,229.45c2.151-1.6,5.338-1.768,7,0" transform="translate(-195.582 -228.074)" fill="none" stroke="#0b2d50" stroke-linecap="round" stroke-miterlimit="10" stroke-width="2"/>
                                <path id="Trazado_865" data-name="Trazado 865" d="M207.829,244.972a10.307,10.307,0,0,1-.439,4.787" transform="translate(-193.228 -235.408)" fill="none" stroke="#cc454e" stroke-linecap="round" stroke-miterlimit="10" stroke-width="2"/>
                                <ellipse id="Elipse_90" data-name="Elipse 90" cx="1.036" cy="1.633" rx="1.036" ry="1.633" transform="translate(5.08 7.064)" fill="#262d40"/>
                                <ellipse id="Elipse_91" data-name="Elipse 91" cx="1.036" cy="1.633" rx="1.036" ry="1.633" transform="translate(18.623 6.303)" fill="#262d40"/>
                            </g>
                            <g id="Grupo_621" data-name="Grupo 621" transform="translate(4.902 14.356)">
                                <path id="Trazado_866" data-name="Trazado 866" d="M199.361,255.7a7.957,7.957,0,0,1-.591.929,6.431,6.431,0,0,1-3.058,2.382h-.006a3.993,3.993,0,0,1-1.965.13c-2.117-.377-2.675-2.331-2.776-3.835a8.055,8.055,0,0,1-.017-.811,7.677,7.677,0,0,1,.079-1.014A24.109,24.109,0,0,0,199.361,255.7Z" transform="translate(-190.944 -253.482)" fill="#cc454e"/>
                                <path id="Trazado_867" data-name="Trazado 867" d="M199.363,255.7a7.958,7.958,0,0,1-.591.929,23.262,23.262,0,0,1-7.822-2.134,7.676,7.676,0,0,1,.079-1.014A24.109,24.109,0,0,0,199.363,255.7Z" transform="translate(-190.947 -253.482)" fill="#fff"/>
                                <path id="Trazado_868" data-name="Trazado 868" d="M195.721,260.417a3.993,3.993,0,0,1-1.965.129c-2.117-.377-2.675-2.331-2.776-3.835a5.766,5.766,0,0,1,4.741,3.705Z" transform="translate(-190.96 -254.893)" fill="#e8729b"/>
                            </g>
                        </g>
                        <g id="Grupo_625" data-name="Grupo 625" transform="translate(0 2.339)">
                            <path id="Trazado_869" data-name="Trazado 869" d="M161.92,204.029a38.927,38.927,0,0,1,2.8-14,20.118,20.118,0,0,1,18.386-12.755,19.748,19.748,0,0,1,14.2,5.552,14.891,14.891,0,0,0-8.452-6.459,23.562,23.562,0,0,0-13.7.715c-4.6,1.864-10.322,7.039-12.394,12.507s-3.075,13.982-3.075,13.982Z" transform="translate(-152.87 -175.68)" fill="#3d86e0"/>
                            <g id="Grupo_623" data-name="Grupo 623" transform="translate(0 25.407)">
                                <ellipse id="Elipse_92" data-name="Elipse 92" cx="6.808" cy="10.316" rx="6.808" ry="10.316" transform="translate(0 1.408) rotate(-5.935)" fill="#56c4f9"/>
                                <ellipse id="Elipse_93" data-name="Elipse 93" cx="4.421" cy="7.777" rx="4.421" ry="7.777" transform="translate(0.501 4.68) rotate(-8.546)" fill="#3d86e0"/>
                            </g>
                            <g id="Grupo_624" data-name="Grupo 624" transform="translate(12.08 44.955)">
                                <ellipse id="Elipse_94" data-name="Elipse 94" cx="3.626" cy="2.258" rx="3.626" ry="2.258" transform="translate(14.591 5.294)" fill="#3a92c9"/>
                                <path id="Trazado_870" data-name="Trazado 870" d="M169.03,255.512a21.91,21.91,0,0,0,14.59,7.551" transform="translate(-169.03 -255.512)" fill="none" stroke="#3a92c9" stroke-linecap="round" stroke-miterlimit="10" stroke-width="2"/>
                            </g>
                        </g>
                    </g>
                    <g id="Grupo_631" data-name="Grupo 631" transform="translate(7.534 61.231)">
                        <g id="Grupo_630" data-name="Grupo 630">
                            <g id="Grupo_629" data-name="Grupo 629" transform="translate(2.893 30.769)">
                                <g id="Grupo_627" data-name="Grupo 627">
                                    <path id="Trazado_871" data-name="Trazado 871" d="M170.938,357.69l-.349,9s-32.565,9.759-37.943,6.673c-2.624-1.509-5.074-9.81-6.9-17.913-1.915-8.514-3.142-16.8-3.142-16.8l19.09-3.739s.011,11.64.659,18.369c.231,2.506.563,4.33,1.008,4.629C145.04,359.019,170.938,357.69,170.938,357.69Z" transform="translate(-122.6 -334.906)" fill="#f9a07b"/>
                                    <path id="Trazado_872" data-name="Trazado 872" d="M142.349,353.265c-3.469,1.126-10.164,2.866-16.606,2.179-1.915-8.514-3.142-16.8-3.142-16.8l19.09-3.739C141.69,334.9,141.7,346.536,142.349,353.265Z" transform="translate(-122.6 -334.902)" fill="#e06a58"/>
                                </g>
                                <g id="Grupo_628" data-name="Grupo 628" transform="translate(45.742 18.419)">
                                    <path id="Trazado_873" data-name="Trazado 873" d="M205.5,372.066c4.843-1.036,13.042-3.525,16.443-4.381,2.416-.608,8.706,2.647,10.367,5.716.726,1.34,1.413,8.931-1.1,8.148-1.261-.394-1.053-3.649-1.447-4.978a5.865,5.865,0,0,0-2.906-3.03c1.042,2.6,1,4.86.89,7.664a3.974,3.974,0,0,1-.36,1.8,1.293,1.293,0,0,1-1.52.681c-.574-.236-.771-.952-.9-1.577a51.255,51.255,0,0,1-1.076-6.769c.045,2.4-.006,4.815-.158,7.214-.113,1.836-1.025,2.844-2.146,2.523-.5-.141-.7-.6-.918-1.211-.338,1.177-1.183,2.478-2.275,1.982-.664-.3-1.076-2.7-.957-5.164a14.45,14.45,0,0,1-7.185,1.977c-2.444.113-4.944-.343-6.414-2A43.2,43.2,0,0,1,205.5,372.066Z" transform="translate(-203.83 -367.611)" fill="#f9a07b"/>
                                    <path id="Trazado_874" data-name="Trazado 874" d="M233.421,391.318a17.217,17.217,0,0,0-.5-5.806" transform="translate(-216.539 -375.431)" fill="none" stroke="#cc454e" stroke-linecap="round" stroke-miterlimit="10" stroke-width="1"/>
                                </g>
                            </g>
                            <path id="Trazado_875" data-name="Trazado 875" d="M137.3,292.149c-1.385-3.9-6.459-11.887-6.459-11.887s-7.743,3.221-10.491,8.689c-4.651,9.258-2.286,35.837-2.286,35.837,6.268,2.624,18.848,2.664,24.2,1.909C142.266,326.7,140.076,299.949,137.3,292.149Z" transform="translate(-117.462 -280.262)" fill="#ffc73c"/>
                        </g>
                        <path id="Trazado_876" data-name="Trazado 876" d="M154.44,304.272a172.172,172.172,0,0,1,3.6,28.77" transform="translate(-133.617 -290.751)" fill="none" stroke="#f2ae30" stroke-linecap="round" stroke-miterlimit="10" stroke-width="1"/>
                    </g>
                </g>
                <rect id="Rectángulo_544" data-name="Rectángulo 544" width="222.027" height="5.569" transform="translate(15.542 131.616)" fill="#0b2d50"/>
            </g>
        </g>
    </g>
</svg>
